<svg width="17" height="12" viewBox="0 0 17 12" fill="none" xmlns="http://www.w3.org/2000/svg">
    <path
        d="M1.08832 9.88235L15.9119 9.88235C16.5119 9.88235 16.9707 10.3412 16.9707 10.9412C16.9707 11.5412 16.5119 12 15.9119 12L1.08832 12C0.488321 12 0.0294971 11.5412 0.0294971 10.9412C0.0294971 10.3412 0.488321 9.88235 1.08832 9.88235Z"
        fill="#14142B" />
    <path
        d="M1.08832 4.94117L15.9119 4.94117C16.5119 4.94117 16.9707 5.4 16.9707 6C16.9707 6.6 16.5119 7.05882 15.9119 7.05882L1.08832 7.05882C0.488321 7.05882 0.0294971 6.6 0.0294971 6C0.0294971 5.4 0.488321 4.94117 1.08832 4.94117Z"
        fill="#14142B" />
    <path
        d="M1.08832 -2.83718e-05L15.9119 -2.83718e-05C16.5119 -2.83718e-05 16.9707 0.458796 16.9707 1.0588C16.9707 1.6588 16.5119 2.11762 15.9119 2.11762L1.08832 2.11762C0.488321 2.11762 0.0294971 1.6588 0.0294971 1.0588C0.0294971 0.458796 0.488321 -2.83718e-05 1.08832 -2.83718e-05Z"
        fill="#14142B" />
</svg>