<svg width="32" height="31" viewBox="0 0 32 31" fill="none" xmlns="http://www.w3.org/2000/svg">
    <rect x="1.36111" y="0.861111" width="29.2778" height="29.2778" rx="14.6389" stroke="#FF8689"
        stroke-width="1.72222" />
    <path
        d="M20.9286 14.4286H17.2857C17.1674 14.4286 17.0714 14.3326 17.0714 14.2143V10.5714C17.0714 9.97974 16.5917 9.5 16 9.5C15.4083 9.5 14.9286 9.97974 14.9286 10.5714V14.2143C14.9286 14.3326 14.8326 14.4286 14.7143 14.4286H11.0714C10.4797 14.4286 10 14.9083 10 15.5C10 16.0917 10.4797 16.5714 11.0714 16.5714H14.7143C14.8326 16.5714 14.9286 16.6674 14.9286 16.7857V20.4286C14.9286 21.0203 15.4083 21.5 16 21.5C16.5917 21.5 17.0714 21.0203 17.0714 20.4286V16.7857C17.0714 16.6674 17.1674 16.5714 17.2857 16.5714H20.9286C21.5203 16.5714 22 16.0917 22 15.5C22 14.9083 21.5203 14.4286 20.9286 14.4286Z"
        fill="white" />
</svg>