<svg width="11" height="11" viewBox="0 0 11 11" fill="none" xmlns="http://www.w3.org/2000/svg">
    <path
        d="M8.22734 1.25736L5.65145 3.83325C5.56778 3.91693 5.43209 3.91693 5.34841 3.83325L2.77252 1.25736C2.35413 0.838969 1.67568 0.838969 1.25729 1.25736C0.8389 1.67575 0.8389 2.3542 1.25729 2.77259L3.83318 5.34848C3.91686 5.43216 3.91686 5.56784 3.83318 5.65152L1.25729 8.22741C0.8389 8.6458 0.8389 9.32425 1.25729 9.74264C1.67568 10.161 2.35413 10.161 2.77252 9.74264L5.34841 7.16675C5.43209 7.08307 5.56778 7.08307 5.65145 7.16675L8.22734 9.74264C8.64573 10.161 9.32418 10.161 9.74257 9.74264C10.161 9.32425 10.161 8.6458 9.74257 8.22741L7.16668 5.65152C7.08301 5.56784 7.08301 5.43216 7.16668 5.34848L9.74257 2.77259C10.161 2.3542 10.161 1.67575 9.74257 1.25736C9.32418 0.838969 8.64573 0.838969 8.22734 1.25736Z"
        fill="#FFFFFF" />
</svg>