<svg width="13" height="16" viewBox="0 0 13 16" fill="none" xmlns="http://www.w3.org/2000/svg">
    <path
        d="M11.7089 3.61332L8.88403 0.940801C8.58356 0.656533 8.19028 0.5 7.77667 0.5H2.39844C1.50995 0.5 0.787109 1.22284 0.787109 2.11133V13.8887C0.787109 14.7772 1.50995 15.5 2.39844 15.5H10.6016C11.49 15.5 12.2129 14.7772 12.2129 13.8887V4.78385C12.2129 4.34296 12.0292 3.91631 11.7089 3.61332ZM10.8553 4.01562H8.66797C8.5872 4.01562 8.52148 3.94991 8.52148 3.86914V1.8077L10.8553 4.01562ZM10.6016 14.6211H2.39844C1.99458 14.6211 1.66602 14.2925 1.66602 13.8887V2.11133C1.66602 1.70747 1.99458 1.37891 2.39844 1.37891H7.64258V3.86914C7.64258 4.43454 8.10257 4.89453 8.66797 4.89453H11.334V13.8887C11.334 14.2925 11.0054 14.6211 10.6016 14.6211Z"
        fill="#2A105C" />
    <path
        d="M9.63477 6.35938H3.18945C2.94676 6.35938 2.75 6.55613 2.75 6.79883C2.75 7.04152 2.94676 7.23828 3.18945 7.23828H9.63477C9.87746 7.23828 10.0742 7.04152 10.0742 6.79883C10.0742 6.55613 9.87746 6.35938 9.63477 6.35938Z"
        fill="#2A105C" />
    <path
        d="M9.63477 8.70312H3.18945C2.94676 8.70312 2.75 8.89988 2.75 9.14258C2.75 9.38527 2.94676 9.58203 3.18945 9.58203H9.63477C9.87746 9.58203 10.0742 9.38527 10.0742 9.14258C10.0742 8.89988 9.87746 8.70312 9.63477 8.70312Z"
        fill="#2A105C" />
    <path
        d="M5.31992 11.0469H3.18945C2.94676 11.0469 2.75 11.2436 2.75 11.4863C2.75 11.729 2.94676 11.9258 3.18945 11.9258H5.31992C5.56262 11.9258 5.75938 11.729 5.75938 11.4863C5.75938 11.2436 5.56262 11.0469 5.31992 11.0469Z"
        fill="#2A105C" />
</svg>