<svg width="109" height="31" viewBox="0 0 109 31" fill="none" xmlns="http://www.w3.org/2000/svg">
    <path
        d="M1.23295 21V10.8182H2.46591V19.9062H7.19886V21H1.23295ZM16.9432 21.1591C16.098 21.1591 15.3954 20.9519 14.8352 20.5376C14.2751 20.12 13.9304 19.5781 13.8011 18.9119L14.0199 15.1136C14.2685 14.5369 14.6281 14.0845 15.0987 13.7564C15.5727 13.4283 16.1477 13.2642 16.8239 13.2642C17.2216 13.2642 17.6143 13.3305 18.0021 13.4631C18.3899 13.5956 18.7429 13.8111 19.0611 14.1094C19.3793 14.4044 19.6328 14.7955 19.8217 15.2827C20.0107 15.7699 20.1051 16.3698 20.1051 17.0824V17.5795H14.2188V16.5653H18.9119C18.9119 16.1345 18.8258 15.75 18.6534 15.4119C18.4844 15.0739 18.2424 14.8071 17.9276 14.6115C17.616 14.416 17.2481 14.3182 16.8239 14.3182C16.3565 14.3182 15.9522 14.4342 15.6108 14.6662C15.2727 14.8949 15.0125 15.1948 14.8303 15.5661C14.648 15.9339 14.5568 16.3267 14.5568 16.7443V17.4205C14.5568 17.9972 14.6579 18.486 14.8601 18.8871C15.0623 19.2848 15.3423 19.5881 15.7003 19.7969C16.0582 20.0024 16.4725 20.1051 16.9432 20.1051C17.2514 20.1051 17.5298 20.062 17.7784 19.9759C18.0303 19.8864 18.2474 19.7538 18.4297 19.5781C18.612 19.3991 18.7528 19.1771 18.8523 18.9119L19.9858 19.2301C19.8665 19.6146 19.666 19.9527 19.3842 20.2443C19.1025 20.5327 18.7545 20.758 18.3402 20.9205C17.9259 21.0795 17.4602 21.1591 16.9432 21.1591ZM11.375 20.125C11.839 20.125 12.2301 20.0339 12.5483 19.8516C12.8698 19.6693 13.1117 19.4339 13.2741 19.1456C13.4399 18.8572 13.5227 18.554 13.5227 18.2358V17.1619C13.473 17.2216 13.3636 17.2763 13.1946 17.326C13.0289 17.3724 12.8366 17.4138 12.6179 17.4503C12.4025 17.4834 12.192 17.5133 11.9865 17.5398C11.7843 17.563 11.6203 17.5829 11.4943 17.5994C11.1894 17.6392 10.9044 17.7038 10.6392 17.7933C10.3774 17.8795 10.1652 18.0104 10.0028 18.1861C9.84375 18.3584 9.7642 18.5937 9.7642 18.892C9.7642 19.2997 9.91501 19.608 10.2166 19.8168C10.5215 20.0223 10.9077 20.125 11.375 20.125ZM11.196 21.179C10.7121 21.179 10.273 21.0878 9.87855 20.9055C9.48414 20.7199 9.17093 20.4531 8.93892 20.1051C8.70691 19.7538 8.59091 19.3295 8.59091 18.8324C8.59091 18.3949 8.67708 18.0402 8.84943 17.7685C9.02509 17.4934 9.25545 17.2779 9.54048 17.1222C9.82884 16.9631 10.1487 16.8454 10.5 16.7692C10.8513 16.6896 11.2027 16.6283 11.554 16.5852C12.018 16.5256 12.3942 16.4792 12.6825 16.446C12.9742 16.4129 13.1863 16.3582 13.3189 16.282C13.4548 16.2057 13.5227 16.0748 13.5227 15.8892V15.8494C13.5227 15.3622 13.3885 14.9827 13.12 14.7109C12.8516 14.4358 12.4489 14.2983 11.9119 14.2983C11.3551 14.2983 10.916 14.4209 10.5945 14.6662C10.2763 14.9115 10.0526 15.1733 9.9233 15.4517L8.80966 15.054C9.00852 14.59 9.27367 14.2287 9.60511 13.9702C9.93987 13.7083 10.3045 13.526 10.6989 13.4233C11.0966 13.3172 11.4877 13.2642 11.8722 13.2642C12.0777 13.2642 12.3097 13.2841 12.5682 13.3239C12.8267 13.3603 13.0869 13.4349 13.3487 13.5476C13.6106 13.6603 13.8492 13.8277 14.0646 14.0497C14.2801 14.2718 14.4441 14.5668 14.5568 14.9347L14.0994 19.608H14C13.9006 19.893 13.7133 20.1548 13.4382 20.3935C13.1664 20.6321 12.835 20.8227 12.4439 20.9652C12.0561 21.1077 11.6402 21.179 11.196 21.179ZM27.3052 15.0739L26.2512 15.3722C26.185 15.1965 26.0872 15.0258 25.9579 14.8601C25.832 14.6911 25.6596 14.5518 25.4409 14.4425C25.2221 14.3331 24.9421 14.2784 24.6007 14.2784C24.1333 14.2784 23.7439 14.3861 23.4324 14.6016C23.1241 14.8137 22.97 15.0838 22.97 15.4119C22.97 15.7036 23.0761 15.9339 23.2882 16.103C23.5003 16.272 23.8317 16.4129 24.2825 16.5256L25.416 16.804C26.0988 16.9697 26.6075 17.2232 26.9423 17.5646C27.277 17.9027 27.4444 18.3385 27.4444 18.8722C27.4444 19.3097 27.3185 19.7008 27.0666 20.0455C26.818 20.3902 26.47 20.6619 26.0225 20.8608C25.5751 21.0597 25.0547 21.1591 24.4615 21.1591C23.6826 21.1591 23.0379 20.9901 22.5275 20.652C22.0171 20.3139 21.694 19.8201 21.5581 19.1705L22.6717 18.892C22.7778 19.303 22.9783 19.6113 23.2733 19.8168C23.5716 20.0223 23.961 20.125 24.4416 20.125C24.9885 20.125 25.4226 20.009 25.7441 19.777C26.069 19.5417 26.2314 19.2599 26.2314 18.9318C26.2314 18.6667 26.1386 18.4446 25.9529 18.2656C25.7673 18.0833 25.4823 17.9474 25.0978 17.858L23.8251 17.5597C23.1258 17.3939 22.612 17.1371 22.2839 16.7891C21.9591 16.4377 21.7967 15.9986 21.7967 15.4716C21.7967 15.0407 21.9177 14.6596 22.1596 14.3281C22.4049 13.9967 22.738 13.7365 23.1589 13.5476C23.5832 13.3587 24.0637 13.2642 24.6007 13.2642C25.3564 13.2642 25.9496 13.4299 26.3805 13.7614C26.8147 14.0928 27.1229 14.5303 27.3052 15.0739ZM33.1481 21V13.3636H34.2816V14.5568H34.381C34.5401 14.1491 34.797 13.8326 35.1516 13.6072C35.5063 13.3786 35.9322 13.2642 36.4293 13.2642C36.9331 13.2642 37.3524 13.3786 37.6871 13.6072C38.0252 13.8326 38.2887 14.1491 38.4776 14.5568H38.5572C38.7527 14.1624 39.046 13.8492 39.4371 13.6172C39.8282 13.3819 40.2972 13.2642 40.8441 13.2642C41.5269 13.2642 42.0853 13.478 42.5195 13.9055C42.9537 14.3298 43.1708 14.991 43.1708 15.8892V21H41.9975V15.8892C41.9975 15.3258 41.8434 14.9231 41.5352 14.6811C41.2269 14.4392 40.864 14.3182 40.4464 14.3182C39.9094 14.3182 39.4935 14.4806 39.1985 14.8054C38.9035 15.1269 38.756 15.5346 38.756 16.0284V21H37.5629V15.7699C37.5629 15.3357 37.422 14.986 37.1403 14.7209C36.8585 14.4524 36.4956 14.3182 36.0515 14.3182C35.7466 14.3182 35.4615 14.3994 35.1964 14.5618C34.9345 14.7242 34.7224 14.9496 34.56 15.2379C34.4009 15.523 34.3214 15.8527 34.3214 16.2273V21H33.1481ZM48.5178 21.1591C47.782 21.1591 47.1473 20.9967 46.6136 20.6719C46.0833 20.3438 45.674 19.8864 45.3857 19.2997C45.1006 18.7098 44.9581 18.0237 44.9581 17.2415C44.9581 16.4593 45.1006 15.7699 45.3857 15.1733C45.674 14.5734 46.075 14.1061 46.5888 13.7713C47.1058 13.4332 47.709 13.2642 48.3984 13.2642C48.7962 13.2642 49.1889 13.3305 49.5767 13.4631C49.9645 13.5956 50.3175 13.8111 50.6357 14.1094C50.9538 14.4044 51.2074 14.7955 51.3963 15.2827C51.5852 15.7699 51.6797 16.3698 51.6797 17.0824V17.5795H45.7933V16.5653H50.4865C50.4865 16.1345 50.4003 15.75 50.228 15.4119C50.0589 15.0739 49.817 14.8071 49.5021 14.6115C49.1906 14.416 48.8227 14.3182 48.3984 14.3182C47.9311 14.3182 47.5268 14.4342 47.1854 14.6662C46.8473 14.8949 46.5871 15.1932 46.4048 15.5611C46.2225 15.929 46.1314 16.3234 46.1314 16.7443V17.4205C46.1314 17.9972 46.2308 18.486 46.4297 18.8871C46.6319 19.2848 46.9119 19.5881 47.2699 19.7969C47.6278 20.0024 48.0438 20.1051 48.5178 20.1051C48.826 20.1051 49.1044 20.062 49.353 19.9759C49.6049 19.8864 49.822 19.7538 50.0043 19.5781C50.1866 19.3991 50.3274 19.1771 50.4268 18.9119L51.5604 19.2301C51.4411 19.6146 51.2405 19.9527 50.9588 20.2443C50.6771 20.5327 50.3291 20.758 49.9148 20.9205C49.5005 21.0795 49.0348 21.1591 48.5178 21.1591ZM53.4645 21V13.3636H54.598V14.517H54.6776C54.8168 14.1392 55.0687 13.8326 55.4332 13.5973C55.7978 13.362 56.2088 13.2443 56.6662 13.2443C56.7524 13.2443 56.8601 13.246 56.9893 13.2493C57.1186 13.2526 57.2164 13.2576 57.2827 13.2642V14.4574C57.2429 14.4474 57.1518 14.4325 57.0092 14.4126C56.87 14.3894 56.7225 14.3778 56.5668 14.3778C56.1955 14.3778 55.8641 14.4557 55.5724 14.6115C55.2841 14.764 55.0554 14.9761 54.8864 15.2479C54.7206 15.5163 54.6378 15.8229 54.6378 16.1676V21H53.4645ZM61.6428 21.1591C60.907 21.1591 60.2723 20.9967 59.7386 20.6719C59.2083 20.3438 58.799 19.8864 58.5107 19.2997C58.2256 18.7098 58.0831 18.0237 58.0831 17.2415C58.0831 16.4593 58.2256 15.7699 58.5107 15.1733C58.799 14.5734 59.2 14.1061 59.7138 13.7713C60.2308 13.4332 60.834 13.2642 61.5234 13.2642C61.9212 13.2642 62.3139 13.3305 62.7017 13.4631C63.0895 13.5956 63.4425 13.8111 63.7607 14.1094C64.0788 14.4044 64.3324 14.7955 64.5213 15.2827C64.7102 15.7699 64.8047 16.3698 64.8047 17.0824V17.5795H58.9183V16.5653H63.6115C63.6115 16.1345 63.5253 15.75 63.353 15.4119C63.1839 15.0739 62.942 14.8071 62.6271 14.6115C62.3156 14.416 61.9477 14.3182 61.5234 14.3182C61.0561 14.3182 60.6518 14.4342 60.3104 14.6662C59.9723 14.8949 59.7121 15.1932 59.5298 15.5611C59.3475 15.929 59.2564 16.3234 59.2564 16.7443V17.4205C59.2564 17.9972 59.3558 18.486 59.5547 18.8871C59.7569 19.2848 60.0369 19.5881 60.3949 19.7969C60.7528 20.0024 61.1688 20.1051 61.6428 20.1051C61.951 20.1051 62.2294 20.062 62.478 19.9759C62.7299 19.8864 62.947 19.7538 63.1293 19.5781C63.3116 19.3991 63.4524 19.1771 63.5518 18.9119L64.6854 19.2301C64.5661 19.6146 64.3655 19.9527 64.0838 20.2443C63.8021 20.5327 63.4541 20.758 63.0398 20.9205C62.6255 21.0795 62.1598 21.1591 61.6428 21.1591Z"
        fill="#14142B" />
    <rect x="78.8611" y="0.861111" width="29.2778" height="29.2778" rx="14.6389" stroke="#FF8689"
        stroke-width="1.72222" />
    <path
        d="M98.4286 14.4286H94.7857C94.6674 14.4286 94.5714 14.3326 94.5714 14.2143V10.5714C94.5714 9.97974 94.0917 9.5 93.5 9.5C92.9083 9.5 92.4286 9.97974 92.4286 10.5714V14.2143C92.4286 14.3326 92.3326 14.4286 92.2143 14.4286H88.5714C87.9797 14.4286 87.5 14.9083 87.5 15.5C87.5 16.0917 87.9797 16.5714 88.5714 16.5714H92.2143C92.3326 16.5714 92.4286 16.6674 92.4286 16.7857V20.4286C92.4286 21.0203 92.9083 21.5 93.5 21.5C94.0917 21.5 94.5714 21.0203 94.5714 20.4286V16.7857C94.5714 16.6674 94.6674 16.5714 94.7857 16.5714H98.4286C99.0203 16.5714 99.5 16.0917 99.5 15.5C99.5 14.9083 99.0203 14.4286 98.4286 14.4286Z"
        fill="#14142B" />
</svg>