<svg width="18" height="19" viewBox="0 0 18 19" fill="none" xmlns="http://www.w3.org/2000/svg">
    <rect x="17.5" y="18" width="17" height="17" rx="8.5" transform="rotate(-180 17.5 18)" fill="#3B193D" />
    <rect x="17.5" y="18" width="17" height="17" rx="8.5" transform="rotate(-180 17.5 18)" stroke="white" />
    <path fill-rule="evenodd" clip-rule="evenodd"
        d="M9.07843 13.0355L5.89645 9.85355C5.70118 9.65829 5.70118 9.3417 5.89645 9.14644L9.07843 5.96446C9.27369 5.7692 9.59027 5.7692 9.78553 5.96446C9.9808 6.15972 9.9808 6.47631 9.78553 6.67157L7.45711 9H12.25V10H7.45711L9.78553 12.3284C9.9808 12.5237 9.9808 12.8403 9.78553 13.0355C9.59027 13.2308 9.27369 13.2308 9.07843 13.0355Z"
        fill="white" />
</svg>