<svg width="18" height="18" viewBox="0 0 18 18" fill="none" xmlns="http://www.w3.org/2000/svg">
    <rect x="17.5" y="0.5" width="17" height="17" rx="8.5" transform="rotate(90 17.5 0.5)" fill="#FF8689" />
    <rect x="17.5" y="0.5" width="17" height="17" rx="8.5" transform="rotate(90 17.5 0.5)" stroke="#FF8689" />
    <path
        d="M8.64645 12.3536C8.84171 12.5488 9.15829 12.5488 9.35355 12.3536L12.5355 9.17157C12.7308 8.97631 12.7308 8.65973 12.5355 8.46447C12.3403 8.2692 12.0237 8.2692 11.8284 8.46447L9 11.2929L6.17157 8.46447C5.97631 8.2692 5.65973 8.2692 5.46447 8.46447C5.2692 8.65973 5.2692 8.97631 5.46447 9.17157L8.64645 12.3536ZM8.5 6V12H9.5V6H8.5Z"
        fill="#2A105C" />
</svg>