<svg width="11" height="11" viewBox="0 0 11 11" fill="none" xmlns="http://www.w3.org/2000/svg">
    <g clip-path="url(#clip0_784_6452)">
        <path
            d="M5.5 0C3.90072 0 2.59961 1.30112 2.59961 2.90039C2.59961 4.49967 3.90072 5.80078 5.5 5.80078C7.09928 5.80078 8.40039 4.49967 8.40039 2.90039C8.40039 1.30112 7.09928 0 5.5 0Z"
            fill="#FF8689" />
        <path
            d="M9.10864 7.6956C8.31458 6.88933 7.26191 6.44531 6.14453 6.44531H4.85547C3.73811 6.44531 2.68542 6.88933 1.89136 7.6956C1.10118 8.49791 0.666016 9.55696 0.666016 10.6777C0.666016 10.8557 0.810305 11 0.988281 11H10.0117C10.1897 11 10.334 10.8557 10.334 10.6777C10.334 9.55696 9.89882 8.49791 9.10864 7.6956Z"
            fill="#FF8689" />
    </g>
    <defs>
        <clipPath id="clip0_784_6452">
            <rect width="11" height="11" fill="white" />
        </clipPath>
    </defs>
</svg>