<svg width="44" height="41" viewBox="0 0 44 41" fill="none" xmlns="http://www.w3.org/2000/svg">
    <g clip-path="url(#clip0_854_3022)">
        <path
            d="M24.9603 15.2837C24.6275 15.2837 24.3589 15.0393 24.3589 14.7366C24.3589 8.9925 21.3996 4.32112 17.7652 4.32112C14.1308 4.32112 11.1715 8.99466 11.1715 14.7366C11.1715 15.0393 10.9029 15.2837 10.5701 15.2837C10.2373 15.2837 9.96875 15.0393 9.96875 14.7366C9.96875 11.711 10.7484 8.85841 12.1603 6.70439C13.6317 4.46169 15.6212 3.22681 17.7628 3.22681C19.9045 3.22681 21.894 4.46169 23.3653 6.70439C24.7796 8.85841 25.5569 11.711 25.5569 14.7366C25.5569 15.0393 25.2883 15.2837 24.9555 15.2837H24.9603Z"
            fill="white" />
        <path
            d="M17.8654 17.747C14.5472 17.747 11.8375 16.8733 10.7108 15.5692C9.95253 16.59 8.37185 17.2755 6.5083 17.2755C3.91504 17.2755 1.87085 15.9455 1.82568 14.237C1.82568 14.2218 1.82568 14.2067 1.82568 14.1916V14.1808C1.82568 14.1808 1.82568 14.1635 1.82568 14.1548C1.85658 8.12743 9.04453 3.22681 17.8654 3.22681C26.6864 3.22681 33.9076 8.14689 33.9076 14.1916C33.9076 14.2781 33.8862 14.3624 33.8458 14.436C33.6556 16.0471 31.6685 17.2755 29.1774 17.2755C27.3329 17.2755 25.7641 16.6008 24.9987 15.5973C23.8554 16.8841 21.1623 17.7448 17.8678 17.7448L17.8654 17.747ZM10.5919 13.6466H10.7464C11.0768 13.6466 11.3454 13.8888 11.3478 14.1894C11.3573 15.3551 14.0385 16.6549 17.8678 16.6549C21.6971 16.6549 24.376 15.3551 24.3878 14.1894C24.3902 13.8888 24.6588 13.6466 24.9892 13.6466H25.0962C25.4266 13.6466 25.6952 13.8888 25.6975 14.1894C25.7047 15.2707 27.2996 16.1834 29.1798 16.1834C31.06 16.1834 32.6549 15.2707 32.6621 14.1894C32.6621 14.118 32.6787 14.0488 32.7072 13.9861C32.5408 8.63782 25.9495 4.32112 17.8702 4.32112C9.79089 4.32112 3.04982 8.7373 3.02605 14.1678C3.02605 14.1764 3.02605 14.1829 3.02605 14.1916C3.03318 15.2729 4.62813 16.1856 6.50593 16.1856C8.38373 16.1856 9.98105 15.2729 9.98818 14.1916C9.98818 13.891 10.2592 13.6487 10.5896 13.6487L10.5919 13.6466Z"
            fill="white" />
        <path
            d="M12.087 33.0932C12.0062 33.0932 11.923 33.078 11.8446 33.0478C11.5403 32.9266 11.4025 32.6044 11.5356 32.3276L13.7604 27.7297H32.3245C32.6573 27.7297 32.9259 27.9741 32.9259 28.2769C32.9259 28.5797 32.6573 28.824 32.3245 28.824H14.5448L12.6361 32.7688C12.5363 32.9742 12.3176 33.0953 12.087 33.0953V33.0932Z"
            fill="white" />
        <path
            d="M35.4572 40.5157H31.0788L28.4737 35.9438H7.79169L4.60418 40.5157H0L5.6548 32.4078H28.8159L39.2152 19.2393H44.0024L31.9987 34.4407L35.4596 40.5157H35.4572ZM31.8109 39.4235H33.4819L30.5915 34.3499L41.6587 20.3336H39.8308L29.4316 33.5021H6.3156L2.18681 39.4235H3.94576L7.13327 34.8516H29.2081L31.8133 39.4235H31.8109Z"
            fill="white" />
        <path
            d="M17.9793 40.9999C17.6465 40.9999 17.3779 40.7555 17.3779 40.4527V35.6321C17.3779 35.3293 17.6465 35.085 17.9793 35.085C18.3121 35.085 18.5807 35.3293 18.5807 35.6321V40.4527C18.5807 40.7555 18.3121 40.9999 17.9793 40.9999Z"
            fill="white" />
        <path
            d="M17.9793 33.4739C17.6465 33.4739 17.3779 33.2295 17.3779 32.9267V17.8399C17.3779 17.5371 17.6465 17.2927 17.9793 17.2927C18.3121 17.2927 18.5807 17.5371 18.5807 17.8399V32.9267C18.5807 33.2295 18.3121 33.4739 17.9793 33.4739Z"
            fill="white" />
        <path
            d="M17.9793 3.83659C17.6465 3.83659 17.3779 3.5922 17.3779 3.28943V0.547157C17.3779 0.244382 17.6465 0 17.9793 0C18.3121 0 18.5807 0.244382 18.5807 0.547157V3.29159C18.5807 3.59437 18.3121 3.83875 17.9793 3.83875V3.83659Z"
            fill="white" />
    </g>
    <defs>
        <clipPath id="clip0_854_3022">
            <rect width="44" height="41" fill="white" />
        </clipPath>
    </defs>
</svg>