<svg width="60" height="58" viewBox="0 0 60 58" fill="none" xmlns="http://www.w3.org/2000/svg">
    <circle cx="30" cy="30" r="25" fill="white" />
    <path
        d="M31.7773 21.8889C31.7773 21.398 32.1753 21 32.6662 21H35.3329C35.8238 21 36.2218 21.398 36.2218 21.8889V36.1111C36.2218 36.602 35.8238 37 35.3329 37H32.6662C32.1753 37 31.7773 36.602 31.7773 36.1111V21.8889Z"
        fill="#19192B" />
    <path
        d="M23.7773 21.8889C23.7773 21.398 24.1753 21 24.6662 21H27.3329C27.8238 21 28.2218 21.398 28.2218 21.8889V36.1111C28.2218 36.602 27.8238 37 27.3329 37H24.6662C24.1753 37 23.7773 36.602 23.7773 36.1111V21.8889Z"
        fill="#19192B" />
</svg>