<svg width="15" height="16" viewBox="0 0 15 16" fill="none" xmlns="http://www.w3.org/2000/svg">
    <g clip-path="url(#clip0_906_1821)">
        <path
            d="M12.7089 3.61332L9.88403 0.940801C9.58356 0.656533 9.19028 0.5 8.77667 0.5H3.39844C2.50995 0.5 1.78711 1.22284 1.78711 2.11133V13.8887C1.78711 14.7772 2.50995 15.5 3.39844 15.5H11.6016C12.49 15.5 13.2129 14.7772 13.2129 13.8887V4.78385C13.2129 4.34296 13.0292 3.91631 12.7089 3.61332ZM11.8553 4.01562H9.66797C9.5872 4.01562 9.52148 3.94991 9.52148 3.86914V1.8077L11.8553 4.01562ZM11.6016 14.6211H3.39844C2.99458 14.6211 2.66602 14.2925 2.66602 13.8887V2.11133C2.66602 1.70747 2.99458 1.37891 3.39844 1.37891H8.64258V3.86914C8.64258 4.43454 9.10257 4.89453 9.66797 4.89453H12.334V13.8887C12.334 14.2925 12.0054 14.6211 11.6016 14.6211Z"
            fill="#2A105C" />
        <path
            d="M10.6348 6.35938H4.18945C3.94676 6.35938 3.75 6.55613 3.75 6.79883C3.75 7.04152 3.94676 7.23828 4.18945 7.23828H10.6348C10.8775 7.23828 11.0742 7.04152 11.0742 6.79883C11.0742 6.55613 10.8775 6.35938 10.6348 6.35938Z"
            fill="#2A105C" />
        <path
            d="M10.6348 8.70312H4.18945C3.94676 8.70312 3.75 8.89988 3.75 9.14258C3.75 9.38527 3.94676 9.58203 4.18945 9.58203H10.6348C10.8775 9.58203 11.0742 9.38527 11.0742 9.14258C11.0742 8.89988 10.8775 8.70312 10.6348 8.70312Z"
            fill="#2A105C" />
        <path
            d="M6.31992 11.0469H4.18945C3.94676 11.0469 3.75 11.2436 3.75 11.4863C3.75 11.729 3.94676 11.9258 4.18945 11.9258H6.31992C6.56262 11.9258 6.75938 11.729 6.75938 11.4863C6.75938 11.2436 6.56262 11.0469 6.31992 11.0469Z"
            fill="#2A105C" />
    </g>
    <defs>
        <clipPath id="clip0_906_1821">
            <rect width="15" height="15" fill="white" transform="translate(0 0.5)" />
        </clipPath>
    </defs>
</svg>