<svg width="19" height="19" viewBox="0 0 19 19" fill="none" xmlns="http://www.w3.org/2000/svg">
    <path
        d="M17.3301 2.82031H1.66992C0.75102 2.82031 0 3.56803 0 4.49023V14.5098C0 15.4323 0.751502 16.1797 1.66992 16.1797H17.3301C18.249 16.1797 19 15.432 19 14.5098V4.49023C19 3.56781 18.2486 2.82031 17.3301 2.82031ZM17.0737 3.93359C16.5337 4.47528 10.1919 10.8378 9.93136 11.0992C9.71375 11.3175 9.28636 11.3176 9.06864 11.0992L1.92635 3.93359H17.0737ZM1.11328 14.3051V4.69489L5.9028 9.5L1.11328 14.3051ZM1.92635 15.0664L6.68874 10.2885L8.28018 11.8851C8.93234 12.5394 10.0679 12.5391 10.7199 11.8851L12.3113 10.2885L17.0737 15.0664H1.92635ZM17.8867 14.3051L13.0972 9.5L17.8867 4.69489V14.3051Z"
        fill="#14142B" />
</svg>