<svg width="44" height="41" viewBox="0 0 44 41" fill="none" xmlns="http://www.w3.org/2000/svg">
    <path
        d="M5.58598 19.9638C5.49067 19.9638 5.39535 19.9363 5.31007 19.8788C5.08935 19.7263 5.03416 19.4238 5.18717 19.2038L8.83168 13.9534C8.98468 13.7334 9.28818 13.6784 9.50891 13.8309C9.72964 13.9834 9.78482 14.286 9.63182 14.506L5.9873 19.7563C5.89199 19.8913 5.74149 19.9663 5.58598 19.9663V19.9638Z"
        fill="white" />
    <path
        d="M23.4772 19.9687C23.3242 19.9687 23.1712 19.8962 23.0759 19.7587L19.4289 14.5034C19.2759 14.2834 19.331 13.9809 19.5518 13.8284C19.7725 13.6784 20.076 13.7309 20.229 13.9509L23.876 19.2062C24.029 19.4262 23.9738 19.7287 23.7531 19.8812C23.6678 19.9387 23.5725 19.9662 23.4772 19.9662V19.9687Z"
        fill="white" />
    <path
        d="M17.7459 40.9976H11.3147C11.0463 40.9976 10.8281 40.7801 10.8281 40.5126V31.252C10.8281 30.3994 11.5254 29.7019 12.3833 29.7019H16.6774C17.5352 29.7019 18.2325 30.3969 18.2325 31.252V40.5126C18.2325 40.7801 18.0143 40.9976 17.7459 40.9976ZM11.8013 40.0275H17.2593V31.252C17.2593 30.932 16.9985 30.672 16.6774 30.672H12.3833C12.0622 30.672 11.8013 30.932 11.8013 31.252V40.0275Z"
        fill="white" />
    <path
        d="M17.0235 23.834H12.0346C11.3699 23.834 10.8281 23.294 10.8281 22.6314V20.8838C10.8281 18.8487 12.4886 17.1936 14.5303 17.1936C16.5721 17.1936 18.2325 18.8487 18.2325 20.8838V22.6314C18.2325 23.294 17.6907 23.834 17.0261 23.834H17.0235ZM14.5303 18.1637C13.0254 18.1637 11.8013 19.3837 11.8013 20.8838V22.6314C11.8013 22.7614 11.9067 22.864 12.0371 22.864H17.0261C17.1565 22.864 17.2618 22.7589 17.2618 22.6314V20.8838C17.2618 19.3837 16.0378 18.1637 14.5328 18.1637H14.5303Z"
        fill="white" />
    <path
        d="M22.9203 40.9999H6.14256C5.55813 40.9999 5.09912 40.4349 5.09912 39.7123V19.4786C5.09912 19.3811 5.12922 19.2836 5.1844 19.2036L13.6272 7.03533C14.0812 6.39029 14.9792 6.39279 15.4282 7.03533L23.876 19.2086C23.9312 19.2886 23.9613 19.3861 23.9613 19.4836V39.7123C23.9613 40.4349 23.5023 40.9999 22.9178 40.9999H22.9203ZM6.07233 19.6286V39.7123C6.07233 39.9073 6.15259 40.0198 6.18018 40.0373L22.9203 40.0299C22.9203 40.0299 22.9906 39.9073 22.9906 39.7123V19.6336L14.6305 7.58787C14.5804 7.51536 14.5377 7.50036 14.5277 7.50036C14.5177 7.50036 14.4775 7.51536 14.4249 7.59037L6.06982 19.6286H6.07233Z"
        fill="white" />
    <path
        d="M26.4923 23.859C26.1286 23.859 25.785 23.6639 25.5517 23.3264L14.6307 7.58796C14.5806 7.51546 14.5379 7.50046 14.5304 7.50046C14.5229 7.50046 14.4802 7.51546 14.4275 7.59046L3.50405 23.3289C3.27078 23.6664 2.92715 23.8615 2.56345 23.8615C2.19975 23.8615 1.85612 23.6664 1.62285 23.3289L0.308517 21.4338C-0.102839 20.8413 -0.102839 19.9162 0.308517 19.3237L13.1784 0.780047C13.5196 0.285017 14.0112 0 14.5304 0C15.0471 0 15.5412 0.285017 15.8874 0.780047L28.7497 19.3212C29.1611 19.9062 29.1611 20.8313 28.7497 21.4263L27.4354 23.3264C27.1996 23.6639 26.8585 23.859 26.4948 23.859H26.4923ZM14.5279 6.5304C14.874 6.5304 15.2026 6.71291 15.4283 7.03293L26.3518 22.7739C26.4597 22.9314 26.5249 22.9314 26.6328 22.7739L27.9471 20.8738C28.1302 20.6113 28.1302 20.1337 27.9471 19.8737L15.0872 1.33258C14.9242 1.09757 14.7285 0.970059 14.5304 0.970059C14.3347 0.970059 14.1391 1.10007 13.9786 1.33258L1.10865 19.8737C0.92555 20.1362 0.92555 20.6163 1.10865 20.8813L2.42549 22.7764C2.53335 22.9339 2.59856 22.9339 2.70642 22.7764L13.6274 7.03543C13.8532 6.71291 14.1817 6.5304 14.5279 6.5304Z"
        fill="white" />
    <path
        d="M40.7391 40.9949H21.9798C21.7114 40.9949 21.4932 40.7774 21.4932 40.5099C21.4932 40.2423 21.7114 40.0248 21.9798 40.0248H40.2525V28.3741H23.4747C23.2063 28.3741 22.9881 28.1566 22.9881 27.8891C22.9881 27.6216 23.2063 27.4041 23.4747 27.4041H40.7391C41.0075 27.4041 41.2257 27.6216 41.2257 27.8891V40.5099C41.2257 40.7774 41.0075 40.9949 40.7391 40.9949Z"
        fill="white" />
    <path
        d="M25.7323 23.2039H23.4749C23.2065 23.2039 22.9883 22.9864 22.9883 22.7189C22.9883 22.4514 23.2065 22.2339 23.4749 22.2339H25.7323C26.0007 22.2339 26.2189 22.4514 26.2189 22.7189C26.2189 22.9864 26.0007 23.2039 25.7323 23.2039Z"
        fill="white" />
    <path
        d="M42.9666 28.3743H23.4749C23.2065 28.3743 22.9883 28.1567 22.9883 27.8892C22.9883 27.6217 23.2065 27.4042 23.4749 27.4042H42.9666C42.9666 27.4042 43.0017 27.4042 43.0193 27.3667C43.0394 27.3242 43.0193 27.2992 43.0118 27.2892C42.9867 27.2592 42.9641 27.2242 42.9466 27.1867L41.1707 23.444C41.0102 23.289 40.802 23.2039 40.5762 23.2039H27.2573C26.989 23.2039 26.7707 22.9864 26.7707 22.7189C26.7707 22.4514 26.989 22.2339 27.2573 22.2339H40.5762C41.0955 22.2339 41.5946 22.4564 41.9407 22.8414C41.9708 22.8764 41.9984 22.9164 42.0185 22.9589L43.8044 26.7242C44.0276 27.0317 44.0652 27.4267 43.9022 27.7767C43.7291 28.1442 43.373 28.3718 42.9691 28.3718L42.9666 28.3743Z"
        fill="white" />
    <path
        d="M37.7642 23.2039H27.2571C26.9887 23.2039 26.7705 22.9864 26.7705 22.7189C26.7705 22.4514 26.9887 22.2339 27.2571 22.2339H37.2801V12.9083H23.4471C23.1787 12.9083 22.9604 12.6908 22.9604 12.4233C22.9604 12.1557 23.1787 11.9382 23.4471 11.9382H37.7667C38.0351 11.9382 38.2533 12.1557 38.2533 12.4233V22.7189C38.2533 22.9864 38.0351 23.2039 37.7667 23.2039H37.7642Z"
        fill="white" />
    <path
        d="M25.7323 23.2039H23.4749C23.2065 23.2039 22.9883 22.9864 22.9883 22.7189C22.9883 22.4514 23.2065 22.2339 23.4749 22.2339H25.7323C26.0007 22.2339 26.2189 22.4514 26.2189 22.7189C26.2189 22.9864 26.0007 23.2039 25.7323 23.2039Z"
        fill="white" />
    <path
        d="M39.5878 12.9084H23.3694C23.101 12.9084 22.8828 12.6909 22.8828 12.4234C22.8828 12.1558 23.101 11.9383 23.3694 11.9383H39.5878C39.5602 11.9058 39.5101 11.9233 39.4925 11.8858L38.0452 8.84064C37.9349 8.73563 37.7894 8.67563 37.6439 8.67563H20.4397C20.1713 8.67563 19.9531 8.45811 19.9531 8.1906C19.9531 7.92308 20.1713 7.70557 20.4397 7.70557H37.6439C38.0904 7.70557 38.5168 7.90308 38.8178 8.2431C38.8479 8.2756 38.873 8.3156 38.8905 8.35561L40.3478 11.4233C40.541 11.6958 40.5761 12.0558 40.4306 12.3684C40.2751 12.7009 39.9515 12.9084 39.5853 12.9084H39.5878Z"
        fill="white" />
</svg>