<svg width="14" height="15" viewBox="0 0 14 15" fill="none" xmlns="http://www.w3.org/2000/svg">
    <g clip-path="url(#clip0_469_19964)">
        <path
            d="M7 0.5C3.1402 0.5 0 3.64024 0 7.50004C0 11.3598 3.1402 14.5 7 14.5C10.8598 14.5 14 11.3598 14 7.50004C14 3.64024 10.8598 0.5 7 0.5ZM7 13.2273C3.84194 13.2273 1.27273 10.6581 1.27273 7.50004C1.27273 4.34202 3.84194 1.77273 7 1.77273C10.1581 1.77273 12.7273 4.34202 12.7273 7.50004C12.7273 10.6581 10.158 13.2273 7 13.2273Z"
            fill="#14142B" />
        <path
            d="M6.99968 3.46973C6.53191 3.46973 6.15137 3.85053 6.15137 4.31859C6.15137 4.78624 6.53191 5.1667 6.99968 5.1667C7.46745 5.1667 7.848 4.78624 7.848 4.31859C7.848 3.85053 7.46745 3.46973 6.99968 3.46973Z"
            fill="#14142B" />
        <path
            d="M6.99964 6.43939C6.6482 6.43939 6.36328 6.72431 6.36328 7.07576V10.8939C6.36328 11.2454 6.6482 11.5303 6.99964 11.5303C7.35109 11.5303 7.63601 11.2454 7.63601 10.8939V7.07576C7.63601 6.72431 7.35109 6.43939 6.99964 6.43939Z"
            fill="#14142B" />
    </g>
    <defs>
        <clipPath id="clip0_469_19964">
            <rect width="14" height="14" fill="white" transform="translate(0 0.5)" />
        </clipPath>
    </defs>
</svg>