<svg width="35" height="36" viewBox="0 0 35 36" fill="none" xmlns="http://www.w3.org/2000/svg">
    <rect y="0.5" width="35" height="35" rx="17.5" fill="white" />
    <g clip-path="url(#clip0_1063_9293)">
        <path
            d="M15.9395 22.8735C17.3696 22.8735 18.7588 22.3964 19.887 21.5176L24.1436 25.7741C24.4615 26.0812 24.9682 26.0724 25.2753 25.7544C25.5749 25.4442 25.5749 24.9525 25.2753 24.6424L21.0188 20.3858C23.1994 17.5788 22.6916 13.5355 19.8846 11.3549C17.0776 9.17434 13.0343 9.68212 10.8537 12.4892C8.67312 15.2962 9.1809 19.3394 11.9879 21.52C13.118 22.398 14.5085 22.8742 15.9395 22.8735ZM12.5194 13.0182C14.4083 11.1293 17.4708 11.1293 19.3597 13.0181C21.2486 14.907 21.2486 17.9695 19.3597 19.8584C17.4709 21.7473 14.4084 21.7473 12.5195 19.8584C12.5195 19.8584 12.5195 19.8584 12.5194 19.8584C10.6306 17.9833 10.6194 14.932 12.4945 13.0431C12.5028 13.0348 12.5111 13.0265 12.5194 13.0182Z"
            fill="#FF8689" />
    </g>
    <defs>
        <clipPath id="clip0_1063_9293">
            <rect width="16" height="16" fill="white" transform="translate(9.5 10)" />
        </clipPath>
    </defs>
</svg>