<svg width="18" height="19" viewBox="0 0 18 19" fill="none" xmlns="http://www.w3.org/2000/svg">
    <path
        d="M16.8947 13.2091C16.8649 13.1844 13.4961 10.7735 12.582 10.9316C12.1427 11.0092 11.8913 11.3084 11.3878 11.9086C11.3068 12.0054 11.1116 12.2366 10.9609 12.4014C10.6427 12.2977 10.3323 12.1714 10.0322 12.0234C8.48279 11.2691 7.23093 10.0172 6.47662 8.46781C6.32861 8.16767 6.20229 7.85732 6.09863 7.53912C6.264 7.38781 6.49575 7.19263 6.59475 7.10938C7.19156 6.60875 7.49081 6.35731 7.56844 5.91744C7.72762 5.00675 5.31563 1.63512 5.29087 1.60475C5.18103 1.44897 5.03797 1.31952 4.87202 1.22575C4.70607 1.13197 4.52137 1.07622 4.33125 1.0625C3.35362 1.0625 0.5625 4.68275 0.5625 5.29306C0.5625 5.3285 0.613688 8.93075 5.05575 13.4493C9.56925 17.8863 13.1715 17.9375 13.2069 17.9375C13.8173 17.9375 17.4375 15.1464 17.4375 14.1687C17.4238 13.9786 17.368 13.7938 17.2741 13.6278C17.1802 13.4619 17.0506 13.3189 16.8947 13.2091ZM13.1451 16.8091C12.6534 16.7686 9.63056 16.3698 5.85113 12.6567C2.11894 8.85706 1.73025 5.82575 1.69144 5.35606C2.42875 4.1988 3.3192 3.14657 4.33856 2.228C4.36106 2.2505 4.39088 2.28425 4.42913 2.32812C5.2109 3.39532 5.88436 4.53778 6.4395 5.73856C6.25897 5.92018 6.06816 6.09127 5.868 6.251C5.55761 6.4875 5.27258 6.75556 5.0175 7.05087L4.88081 7.24213L4.92131 7.47331C5.04035 7.98897 5.22267 8.48794 5.46412 8.95888C6.32919 10.7353 7.76462 12.1705 9.54113 13.0353C10.012 13.2771 10.511 13.4596 11.0267 13.5787L11.2579 13.6192L11.4491 13.4825C11.7456 13.2263 12.0147 12.9401 12.2524 12.6286C12.4284 12.4183 12.6641 12.1376 12.753 12.0583C13.9572 12.6128 15.1026 13.2871 16.1719 14.0709C16.2186 14.1102 16.2512 14.1406 16.2731 14.1603C15.3547 15.18 14.3025 16.0706 13.1451 16.808V16.8091Z"
        fill="#14142B" />
</svg>