<svg width="31" height="31" viewBox="0 0 31 31" fill="none" xmlns="http://www.w3.org/2000/svg">
    <rect x="0.861111" y="0.861111" width="29.2778" height="29.2778" rx="14.6389" fill="white" />
    <rect x="0.861111" y="0.861111" width="29.2778" height="29.2778" rx="14.6389" stroke="white"
        stroke-width="1.72222" />
    <g clip-path="url(#clip0_835_7448)">
        <path
            d="M20.4286 14.4286H16.7857C16.6674 14.4286 16.5714 14.3326 16.5714 14.2143V10.5714C16.5714 9.97974 16.0917 9.5 15.5 9.5C14.9083 9.5 14.4286 9.97974 14.4286 10.5714V14.2143C14.4286 14.3326 14.3326 14.4286 14.2143 14.4286H10.5714C9.97974 14.4286 9.5 14.9083 9.5 15.5C9.5 16.0917 9.97974 16.5714 10.5714 16.5714H14.2143C14.3326 16.5714 14.4286 16.6674 14.4286 16.7857V20.4286C14.4286 21.0203 14.9083 21.5 15.5 21.5C16.0917 21.5 16.5714 21.0203 16.5714 20.4286V16.7857C16.5714 16.6674 16.6674 16.5714 16.7857 16.5714H20.4286C21.0203 16.5714 21.5 16.0917 21.5 15.5C21.5 14.9083 21.0203 14.4286 20.4286 14.4286Z"
            fill="#14142B" />
    </g>
    <defs>
        <clipPath id="clip0_835_7448">
            <rect width="12" height="12" fill="white" transform="translate(9.5 9.5)" />
        </clipPath>
    </defs>
</svg>