<svg width="30" height="21" viewBox="0 0 30 21" fill="none" xmlns="http://www.w3.org/2000/svg">
    <path
        d="M13.908 0V4.218C11.324 4.218 9.272 4.712 7.752 5.7C6.232 6.688 5.282 8.17 4.902 10.146C5.814 9.38601 6.84 9.00601 7.98 9.00601C9.044 9.00601 9.994 9.19601 10.83 9.57601C11.742 9.95601 12.426 10.526 12.882 11.286C13.414 12.046 13.68 13.072 13.68 14.364C13.68 16.188 13.034 17.67 11.742 18.81C10.526 19.95 9.006 20.52 7.182 20.52C5.738 20.52 4.484 20.102 3.42 19.266C2.356 18.43 1.52 17.366 0.912 16.074C0.304 14.782 0 13.49 0 12.198C0 9.31 0.608 6.992 1.824 5.244C3.04 3.42 4.712 2.09 6.84 1.25401C8.968 0.418003 11.324 0 13.908 0ZM29.412 0V4.218C26.828 4.218 24.776 4.712 23.256 5.7C21.736 6.688 20.786 8.17 20.406 10.146C21.318 9.38601 22.344 9.00601 23.484 9.00601C24.548 9.00601 25.498 9.19601 26.334 9.57601C27.246 9.95601 27.93 10.526 28.386 11.286C28.918 12.046 29.184 13.072 29.184 14.364C29.184 16.188 28.538 17.67 27.246 18.81C26.03 19.95 24.51 20.52 22.686 20.52C21.242 20.52 19.988 20.102 18.924 19.266C17.86 18.43 17.024 17.366 16.416 16.074C15.808 14.782 15.504 13.49 15.504 12.198C15.504 9.31 16.112 6.992 17.328 5.244C18.544 3.42 20.216 2.09 22.344 1.25401C24.472 0.418003 26.828 0 29.412 0Z"
        fill="#FF8689" />
</svg>