<svg width="30" height="21" viewBox="0 0 30 21" fill="none" xmlns="http://www.w3.org/2000/svg">
    <path
        d="M13.908 0.47998V4.69798C11.324 4.69798 9.272 5.19198 7.752 6.17998C6.232 7.16798 5.282 8.64998 4.902 10.626C5.814 9.86599 6.84 9.48599 7.98 9.48599C9.044 9.48599 9.994 9.67599 10.83 10.056C11.742 10.436 12.426 11.006 12.882 11.766C13.414 12.526 13.68 13.552 13.68 14.844C13.68 16.668 13.034 18.15 11.742 19.29C10.526 20.43 9.006 21 7.182 21C5.738 21 4.484 20.582 3.42 19.746C2.356 18.91 1.52 17.846 0.912 16.554C0.304 15.262 0 13.97 0 12.678C0 9.78998 0.608 7.47198 1.824 5.72398C3.04 3.89998 4.712 2.56998 6.84 1.73399C8.968 0.897983 11.324 0.47998 13.908 0.47998ZM29.412 0.47998V4.69798C26.828 4.69798 24.776 5.19198 23.256 6.17998C21.736 7.16798 20.786 8.64998 20.406 10.626C21.318 9.86599 22.344 9.48599 23.484 9.48599C24.548 9.48599 25.498 9.67599 26.334 10.056C27.246 10.436 27.93 11.006 28.386 11.766C28.918 12.526 29.184 13.552 29.184 14.844C29.184 16.668 28.538 18.15 27.246 19.29C26.03 20.43 24.51 21 22.686 21C21.242 21 19.988 20.582 18.924 19.746C17.86 18.91 17.024 17.846 16.416 16.554C15.808 15.262 15.504 13.97 15.504 12.678C15.504 9.78998 16.112 7.47198 17.328 5.72398C18.544 3.89998 20.216 2.56998 22.344 1.73399C24.472 0.897983 26.828 0.47998 29.412 0.47998Z"
        fill="#FF8689" />
</svg>