<svg width="10" height="11" viewBox="0 0 10 11" fill="none" xmlns="http://www.w3.org/2000/svg">
    <path
        d="M9.09082 1.59083C8.42053 1.51951 7.76081 1.3704 7.125 1.14651C6.54153 0.94036 5.98185 0.672225 5.45556 0.346706C5.31823 0.263348 5.16065 0.219269 5 0.219269C4.83935 0.219269 4.68177 0.263348 4.54444 0.346706L4.54393 0.347206C4.01775 0.67246 3.45825 0.940423 2.875 1.14651C2.23934 1.37035 1.5798 1.51946 0.90967 1.59085C0.694409 1.61289 0.494987 1.71403 0.350026 1.87469C0.205065 2.03534 0.12488 2.24407 0.125 2.46046V5.05812C0.125352 6.01655 0.381837 6.95747 0.867908 7.7835C1.35398 8.60953 2.05197 9.29065 2.88965 9.75636L4.57471 10.6929C4.70448 10.7659 4.85086 10.8042 4.99975 10.8042C5.14865 10.8042 5.29503 10.7659 5.42481 10.6929L7.11035 9.75636C7.94803 9.29065 8.64602 8.60953 9.13209 7.7835C9.61816 6.95747 9.87465 6.01655 9.875 5.05812V2.46046C9.87514 2.24415 9.79503 2.03547 9.65017 1.87482C9.50531 1.71417 9.306 1.61298 9.09082 1.59083ZM6.98975 4.59183L5.11475 6.59183C5.02571 6.687 4.903 6.74359 4.77282 6.74952C4.64263 6.75545 4.51529 6.71025 4.41797 6.62357L3.29297 5.62357C3.1939 5.53551 3.13387 5.4117 3.12609 5.27939C3.11831 5.14707 3.16341 5.01707 3.25147 4.91801C3.33952 4.81894 3.46333 4.75891 3.59565 4.75113C3.72797 4.74334 3.85796 4.78844 3.95703 4.8765L4.71826 5.55277L6.26026 3.90824C6.30706 3.85839 6.36355 3.81864 6.42628 3.79143C6.489 3.76422 6.55663 3.75012 6.625 3.75001C6.72248 3.75006 6.81781 3.7786 6.89928 3.83212C6.98075 3.88564 7.0448 3.9618 7.08355 4.05124C7.12231 4.14068 7.13408 4.2395 7.11741 4.33554C7.10074 4.43158 7.05637 4.52068 6.98975 4.59183Z"
        fill="#FF8689" />
</svg>