<svg width="13" height="13" viewBox="0 0 13 13" fill="none" xmlns="http://www.w3.org/2000/svg">
    <path
        d="M10.0754 1.1967L6.85558 4.41656C6.75098 4.52116 6.58137 4.52116 6.47677 4.41656L3.25691 1.1967C2.73392 0.673712 1.88586 0.673712 1.36287 1.1967C0.839884 1.71969 0.839884 2.56775 1.36287 3.09074L4.58273 6.3106C4.68733 6.41519 4.68733 6.58481 4.58273 6.6894L1.36287 9.90926C0.839884 10.4323 0.839884 11.2803 1.36287 11.8033C1.88586 12.3263 2.73392 12.3263 3.25691 11.8033L6.47677 8.58344C6.58137 8.47884 6.75098 8.47884 6.85558 8.58344L10.0754 11.8033C10.5984 12.3263 11.4465 12.3263 11.9695 11.8033C12.4925 11.2803 12.4925 10.4323 11.9695 9.90926L8.74961 6.6894C8.64501 6.58481 8.64501 6.41519 8.74961 6.3106L11.9695 3.09074C12.4925 2.56775 12.4925 1.71969 11.9695 1.1967C11.4465 0.673712 10.5984 0.673712 10.0754 1.1967Z"
        fill="#2A105C" />
</svg>