<?xml version="1.0" encoding="UTF-8"?>
<svg id="Layer_1" xmlns="http://www.w3.org/2000/svg" version="1.1" viewBox="0 0 85.04 85.04">
  <!-- Generator: Adobe Illustrator 29.5.1, SVG Export Plug-In . SVG Version: 2.1.0 Build 141)  -->
  <defs>
    <style>
      .st0 {
        fill: none;
        stroke: #000000;
        stroke-linecap: round;
        stroke-linejoin: round;
      }
    </style>
  </defs>
  <path class="st0" d="M50.67,28.74v1.97M48.7,57.77h2.95v-.49c0-1.09-.88-1.97-1.97-1.97h-.98v-6.68l1.25-1.5c1.1-1.33,1.7-3,1.7-4.72v-3.01c0-1.27,1.03-2.29,2.29-2.29s2.38-.9,2.55-2.11l.06-.45c.07-.5-.25-.97-.74-1.09-1.12-.26-1.31-.59-1.46-1.1l-.04-.13c-.42-1.48-1.77-2.5-3.31-2.5h-.35v-2.46c-5.9,2.46-6.4,9.35-6.4,9.35,0,0-12.3.98-12.3,15.75v.49M37.38,46.94h1.01c3.34,0,5.48,3.55,3.91,6.5l-.99,1.87h2.95c1.09,0,1.97.88,1.97,1.97v.49h-11.32c-2.46,0-7.91-2.34-4.92-11.32,1.76-5.27-1.06-8.03-2.49-9.18-.53-.43-.61-1.21-.2-1.75h0c.4-.54,1.16-.68,1.71-.31,1.55,1.03,4.73,4.66,4.17,9.97"/>
</svg>