<?xml version="1.0" encoding="UTF-8"?>
<svg id="Layer_1" xmlns="http://www.w3.org/2000/svg" version="1.1" viewBox="0 0 85.04 85.04">
  <!-- Generator: Adobe Illustrator 29.5.1, SVG Export Plug-In . SVG Version: 2.1.0 Build 141)  -->
  <defs>
    <style>
      .st0 {
        fill: none;
        stroke: #B0ABAB;
        stroke-linecap: round;
        stroke-linejoin: round;
      }
    </style>
  </defs>
  <path class="st0" d="M52,38.27h-18.85c-.28,0-.51-.23-.51-.51l1.57-4.1c.24-.53.33-1.17,1.28-1.11l14-.08c1.14,0,1.36.83,1.58,1.36l1.44,3.93c0,.28-.23.51-.51.51ZM52.35,51.94v1.63c0,.54.44.99.99.99h3.24c.61,0,1.11-.5,1.11-1.11v-2.26M27.16,51.11v2.33c0,.61.5,1.11,1.11,1.11h3.24c.55,0,.99-.44.99-.99v-1.59M30.82,47.24c-1.19,0-2.16-.97-2.16-2.16s.97-2.16,2.16-2.16,2.16.97,2.16,2.16-.97,2.16-2.16,2.16ZM49.29,44.74l-1.01,1.71c-.18.3-.5.48-.84.48h-9.82c-.35,0-.67-.18-.84-.48l-1.02-1.73c-.23-.39.05-.88.5-.88h12.53c.46,0,.75.5.51.9h0ZM54.21,47.24c-1.19,0-2.16-.97-2.16-2.16s.97-2.16,2.16-2.16,2.16.97,2.16,2.16-.97,2.16-2.16,2.16Z"/>
  <path class="st0" d="M55.95,37.29l-2.9-5.34c-1.06-1.96-2.05-1.66-3.46-1.66h-14c-1.41,0-2.49-.38-3.46,1.66l-2.81,5.42h-2.62c-.64,0-1.16.52-1.16,1.16s.52,1.16,1.16,1.16c0,0,1.5.12.82.68-.09.07-.17.14-.23.21-2.14,1.93-1.87,8.57-.58,10.22,1.37,1.75,30.24,1.74,31.6,0,1.33-1.7,1.59-8.77-.81-10.42h0c-.68-.56.82-.68.82-.68.64,0,1.16-.52,1.16-1.16s-.52-1.16-1.16-1.16h-2.19l-.19-.07v-.02h0Z"/>
</svg>