<?xml version="1.0" encoding="UTF-8"?>
<svg id="Layer_1" xmlns="http://www.w3.org/2000/svg" version="1.1" viewBox="0 0 85.04 85.04">
  <!-- Generator: Adobe Illustrator 29.5.1, SVG Export Plug-In . SVG Version: 2.1.0 Build 141)  -->
  <defs>
    <style>
      .st0 {
        stroke-miterlimit: 10;
      }

      .st0, .st1 {
        fill: none;
        stroke: #2a105c;
      }

      .st1 {
        stroke-linecap: round;
        stroke-linejoin: round;
      }
    </style>
  </defs>
  <line class="st0" x1="47.49" y1="44.38" x2="47.49" y2="57.65"/>
  <path class="st0" d="M38.44,46.76h-2.7c-.43,0-.78-.35-.78-.78v-2.7c0-.43.35-.78.78-.78h2.7c.43,0,.78.35.78.78v2.7c0,.43-.35.78-.78.78ZM39.36,57.94v-6.89c0-.25-.2-.45-.46-.45h-3.36c-.25,0-.46.2-.46.45v6.89"/>
  <line class="st0" x1="26.93" y1="57.74" x2="26.93" y2="44.38"/>
  <g>
    <path class="st0" d="M48.52,45.04c-.28,0-.55-.15-.74-.42l-10.51-12.35c-.04-.06-.07-.07-.08-.07,0,0-.04,0-.08.07l-10.5,12.35c-.18.26-.45.42-.74.42s-.55-.15-.74-.42l-1.03-1.49c-.32-.46-.32-1.19,0-1.66l12.03-14.55c.26-.39.65-.61,1.06-.61h0c.4,0,.79.22,1.06.61l12.02,14.55c.32.46.32,1.18,0,1.65l-1.03,1.49c-.18.26-.45.42-.74.42"/>
    <path class="st1" d="M26.93,57.82l28.66-.04v-4.48c-2.16-.33-3.53-2.18-3.53-4.43,0-3.26,2.45-12.11,4.49-12.11s4.49,8.85,4.49,12.11c0,2.25-1.37,4.1-3.53,4.43v4.01"/>
  </g>
</svg>