<?xml version="1.0" encoding="UTF-8"?>
<svg id="Layer_1" xmlns="http://www.w3.org/2000/svg" version="1.1" viewBox="0 0 85.04 85.04">
  <!-- Generator: Adobe Illustrator 29.5.1, SVG Export Plug-In . SVG Version: 2.1.0 Build 141)  -->
  <defs>
    <style>
      .st0 {
        fill: #B0ABAB;
      }

      .st1 {
        stroke-linecap: round;
        stroke-linejoin: round;
      }

      .st1, .st2 {
        fill: none;
        stroke: #B0ABAB;
        stroke-width: .97px;
      }

      .st2 {
        stroke-miterlimit: 10;
      }
    </style>
  </defs>
  <path class="st1" d="M33.73,52.77l-.52.03c-8.14,0-8.6-5.33-8.6-11.84s5.86-11.84,12.99-11.84h7.95c8.91,0,12.74,5.34,13.18,11.84.57,8.6,1.74,11.84-3.32,11.84h-10.55l-.56-.03c0-2.92-2.37-5.29-5.29-5.29s-5.29,2.37-5.29,5.29"/>
  <path class="st2" d="M36.62,52.92c0,1.33,1.07,2.4,2.4,2.4s2.4-1.07,2.4-2.4-1.07-2.4-2.4-2.4-2.4,1.07-2.4,2.4Z"/>
  <path class="st1" d="M47.24,49.59v-11.83c0-1.05.86-1.91,1.91-1.91h2.94c1.05,0,1.91.86,1.91,1.91v11.83"/>
  <path class="st2" d="M33.13,35.84h6.51c1.05,0,1.91.86,1.91,1.91v2.47c0,1.06-.86,1.91-1.91,1.91h-6.51c-1.05,0-1.91-.86-1.91-1.91v-2.47c0-1.05.86-1.91,1.91-1.91Z"/>
  <path class="st0" d="M52.65,43.71c0,.47-.38.85-.85.85s-.85-.38-.85-.85.38-.85.85-.85.85.38.85.85"/>
</svg>