<?xml version="1.0" encoding="UTF-8"?>
<svg id="Layer_1" xmlns="http://www.w3.org/2000/svg" version="1.1" viewBox="0 0 85.04 85.04">
  <!-- Generator: Adobe Illustrator 29.5.1, SVG Export Plug-In . SVG Version: 2.1.0 Build 141)  -->
  <defs>
    <style>
      .st0 {
        fill: none;
        stroke: #000000;
        stroke-miterlimit: 10;
      }
    </style>
  </defs>
  <path class="st0" d="M57.39,51.95c-2.23,0-4.05-1.82-4.05-4.05s1.82-4.05,4.05-4.05,4.05,1.82,4.05,4.05-1.82,4.05-4.05,4.05ZM30.34,51.95c-2.23,0-4.05-1.82-4.05-4.05s1.82-4.05,4.05-4.05c1.67,0,3.1,1.01,3.72,2.46h-3.52c-.88,0-1.59.71-1.59,1.59s.71,1.59,1.59,1.59h3.53c-.62,1.45-2.06,2.47-3.73,2.47h0ZM57.39,40.32c-.45,0-.89.04-1.32.12l-.81-2.55c.29.12.61.18.94.18h.26c.44,0,.81-.36.81-.81v-3.61c0-.45-.36-.81-.81-.81h-.26c-.91,0-1.7.48-2.17,1.18l-.89-2.79c-.46-1.44-1.78-2.4-3.28-2.4h-2.74c-.88,0-1.59.71-1.59,1.59s.71,1.59,1.59,1.59h2.74c.12,0,.22.08.26.19l.58,1.84h-5.15c-.99,0-1.95.35-2.71,1l-1.87,1.58h-5.68l-1.6-1.7c-.53-.56-1.27-.88-2.04-.88h-4.44c-1.21,0-1.99,1.19-1.63,2.26-1.38.57-2.67,1.39-3.78,2.44-.6.56-.63,1.5-.07,2.1.29.31.69.47,1.08.47.36,0,.73-.13,1.02-.4,1.77-1.66,4.08-2.58,6.5-2.58h.1c4.69.05,8.57,3.48,9.33,7.97h-2.02c-.73-3.42-3.78-5.99-7.41-5.99-4.18,0-7.58,3.4-7.58,7.58s3.4,7.58,7.58,7.58c3.64,0,6.68-2.58,7.41-6h4.75c.13,0,.53-.02.53-.02,1.76,0,3.38-1.05,4.13-2.65l1.55-3.33c.69-1.47,1.84-2.67,3.28-3.42l.54-.28.59,1.85c-2,1.37-3.32,3.66-3.32,6.26,0,4.18,3.4,7.58,7.58,7.58s7.58-3.4,7.58-7.58-3.4-7.58-7.58-7.58c0,0,.02.02.02.02Z"/>
</svg>