<?xml version="1.0" encoding="UTF-8"?>
<svg id="Layer_1" xmlns="http://www.w3.org/2000/svg" version="1.1" viewBox="0 0 85.04 85.04">
  <!-- Generator: Adobe Illustrator 29.5.1, SVG Export Plug-In . SVG Version: 2.1.0 Build 141)  -->
  <defs>
    <style>
      .st0, .st1 {
        fill: none;
        stroke: #2a105c;
        stroke-linecap: round;
        stroke-linejoin: round;
      }

      .st2 {
        fill: #2a105c;
      }

      .st1 {
        stroke-width: 1px;
      }
    </style>
  </defs>
  <g>
    <path class="st0" d="M29.48,30.69l1.42-1.42c1.78-1.8,4.69-1.81,6.49-.03l18.11,17.95c1.8,1.78,1.81,4.69.03,6.49l-1.42,1.42c-1.78,1.8-4.69,1.81-6.48.03l-18.11-17.95c-1.79-1.78-1.81-4.69-.03-6.49h0Z"/>
    <path class="st2" d="M35.29,34.33c0,.39-.31.71-.71.71s-.71-.31-.71-.71.31-.71.71-.72.71.32.71.71"/>
    <path class="st2" d="M37.16,36.15c0,.39-.31.71-.71.71s-.71-.31-.71-.71.31-.71.71-.72c.39,0,.71.32.71.71"/>
    <path class="st2" d="M32.55,33.58c0,.39-.31.71-.71.71s-.71-.31-.71-.71.31-.71.71-.72.71.32.71.71"/>
    <path class="st2" d="M34.55,31.57c0,.39-.31.71-.71.71s-.71-.31-.71-.71.31-.71.71-.72.71.32.71.71"/>
    <path class="st2" d="M33.32,36.32c0,.39-.31.71-.71.71s-.71-.31-.71-.71.31-.71.71-.72.71.32.71.71"/>
    <path class="st2" d="M35.16,38.17c0,.39-.31.71-.71.71s-.71-.31-.71-.71.31-.71.71-.72.71.32.71.71"/>
    <path class="st2" d="M37.29,32.32c0,.39-.31.71-.71.71s-.71-.31-.71-.71.31-.71.71-.72c.39,0,.71.32.71.71"/>
    <path class="st2" d="M39.15,34.16c0,.39-.31.71-.71.71s-.71-.31-.71-.71.31-.71.71-.72c.39,0,.71.32.71.71"/>
    <path class="st2" d="M50.51,49.32c-.39-.04-.74.25-.78.64s.25.74.64.78.74-.25.78-.64-.25-.74-.64-.78"/>
    <path class="st2" d="M48.65,47.5c-.39-.04-.74.25-.78.64s.25.74.64.78.74-.25.78-.64-.25-.74-.64-.78"/>
    <path class="st2" d="M51.26,52.08c-.39-.04-.74.25-.78.64s.25.74.64.78.74-.25.78-.64-.25-.74-.64-.78"/>
    <path class="st2" d="M53.25,50.07c-.39-.04-.74.25-.78.64s.25.74.64.78.74-.25.78-.64-.25-.74-.64-.78"/>
    <path class="st2" d="M48.49,51.33c-.39-.04-.74.25-.78.64s.25.74.64.78.74-.25.78-.64-.25-.74-.64-.78"/>
    <path class="st2" d="M46.63,49.49c-.39-.04-.74.25-.78.64s.25.74.64.78.74-.25.78-.64-.25-.74-.64-.78"/>
    <path class="st2" d="M52.51,47.33c-.39-.04-.74.25-.78.64s.25.74.64.78.74-.25.78-.64-.25-.74-.64-.78"/>
    <path class="st2" d="M50.65,45.46c-.39-.04-.74.25-.78.64s.25.74.64.78.74-.25.78-.64-.25-.74-.64-.78"/>
    <path class="st0" d="M42.55,50.29l-4.91,4.96c-1.78,1.8-4.69,1.81-6.49.03l-1.42-1.42c-1.8-1.78-1.81-4.69-.03-6.49l2.54-2.57"/>
    <path class="st0" d="M42.65,34.32l5.01-5.05c1.78-1.79,4.69-1.81,6.49-.03l1.42,1.42c1.8,1.78,1.81,4.69.03,6.49l-2.54,2.57"/>
  </g>
  <rect class="st1" x="39.41" y="38.36" width="6.18" height="7.64" transform="translate(-17.38 42.67) rotate(-45.25)"/>
</svg>