<?xml version="1.0" encoding="UTF-8"?>
<svg id="Layer_1" xmlns="http://www.w3.org/2000/svg" version="1.1" viewBox="0 0 85.04 85.04">
  <!-- Generator: Adobe Illustrator 29.5.1, SVG Export Plug-In . SVG Version: 2.1.0 Build 141)  -->
  <defs>
    <style>
      .st0, .st1 {
        fill: none;
        stroke: #000000;
        stroke-miterlimit: 10;
      }

      .st1 {
        stroke-linecap: round;
      }
    </style>
  </defs>
  <g>
    <path class="st0" d="M51.03,47.21v12.9c0,.43-.35.78-.79.78h-18.99c-.43,0-.78-.35-.78-.78v-12.9"/>
    <path class="st0" d="M41.98,49.6h-2.7c-.43,0-.78-.35-.78-.78v-2.7c0-.43.35-.78.78-.78h2.7c.43,0,.78.35.78.78v2.7c0,.43-.35.78-.78.78ZM42.9,60.77v-6.89c0-.25-.2-.45-.46-.45h-3.36c-.25,0-.46.2-.46.45v6.89"/>
    <path class="st0" d="M52.06,47.87c-.28,0-.55-.15-.74-.42l-10.51-12.35c-.04-.06-.07-.07-.08-.07,0,0-.04,0-.08.07l-10.5,12.35c-.18.26-.45.42-.74.42s-.55-.15-.74-.42l-1.03-1.49c-.32-.46-.32-1.19,0-1.66l12.03-14.55c.26-.39.65-.61,1.06-.61h0c.4,0,.79.22,1.06.61l12.02,14.55c.32.46.32,1.18,0,1.65l-1.03,1.49c-.18.26-.45.42-.74.42"/>
  </g>
  <line class="st1" x1="43.9" y1="26.15" x2="46.05" y2="28.9"/>
  <line class="st1" x1="55" y1="39.71" x2="57.14" y2="42.46"/>
  <path class="st0" d="M45.48,34.4c.08-1.21.66-2.38,1.68-3.18,1.92-1.5,4.69-1.16,6.19.76s1.16,4.69-.76,6.19c-.88.69-1.94.99-2.98.93"/>
  <line class="st1" x1="58.29" y1="27.49" x2="55.54" y2="29.64"/>
  <line class="st1" x1="50.97" y1="23.92" x2="50.55" y2="27.38"/>
  <line class="st1" x1="57.52" y1="35.21" x2="60.98" y2="35.64"/>
</svg>