<?xml version="1.0" encoding="UTF-8"?>
<svg id="Layer_1" xmlns="http://www.w3.org/2000/svg" version="1.1" viewBox="0 0 85.04 85.04">
  <!-- Generator: Adobe Illustrator 29.5.1, SVG Export Plug-In . SVG Version: 2.1.0 Build 141)  -->
  <defs>
    <style>
      .st0 {
        fill: #2a105c;
      }

      .st1 {
        fill: none;
        stroke: #2a105c;
        stroke-linejoin: round;
        stroke-width: .89px;
      }
    </style>
  </defs>
  <path class="st1" d="M62.09,40.84v5.22c0,1.8-1.46,3.26-3.26,3.26h-1.69c-2.12,4.31-6.09,7.55-10.87,8.69-.36,1.01-1.32,1.75-2.45,1.75h-2.61c-1.43,0-2.61-1.17-2.61-2.61s1.17-2.61,2.61-2.61h2.61c.78,0,1.47.35,1.95.9,5.98-1.47,10.44-6.86,10.44-13.29,0-7.56-6.14-13.7-13.7-13.7s-13.7,6.15-13.7,13.7c0,2.63.76,5.09,2.05,7.17h-4.66c-1.8,0-3.26-1.46-3.26-3.26v-5.22c0-1.8,1.46-3.26,3.26-3.26h.66c1.98-6.78,8.24-11.74,15.65-11.74s13.66,4.97,15.64,11.74h.66c1.8,0,3.26,1.46,3.26,3.26h.02Z"/>
  <path class="st1" d="M38.82,50.74l-3.79,1.69c-.7.31-1.46-.31-1.28-1.06l.98-4.12c-.93-1.44-1.48-3.16-1.48-5,0-5.11,4.16-9.27,9.27-9.27s9.27,4.16,9.27,9.27-4.16,9.27-9.27,9.27c-1.31,0-2.56-.28-3.69-.77h-.01Z"/>
  <path class="st0" d="M36.24,42.18c0,.81.66,1.47,1.47,1.47s1.47-.66,1.47-1.47-.66-1.47-1.47-1.47-1.47.66-1.47,1.47M41.05,42.18c0,.81.66,1.47,1.47,1.47s1.47-.66,1.47-1.47-.66-1.47-1.47-1.47-1.47.66-1.47,1.47M45.85,42.18c0,.81.66,1.47,1.47,1.47s1.47-.66,1.47-1.47-.66-1.47-1.47-1.47-1.47.66-1.47,1.47"/>
</svg>