<?xml version="1.0" encoding="UTF-8"?>
<svg id="Layer_1" xmlns="http://www.w3.org/2000/svg" version="1.1" viewBox="0 0 85.04 85.04">
  <!-- Generator: Adobe Illustrator 29.5.1, SVG Export Plug-In . SVG Version: 2.1.0 Build 141)  -->
  <defs>
    <style>
      .st0 {
        fill: none;
        stroke: #B0ABAB;
        stroke-linecap: round;
        stroke-linejoin: round;
      }
    </style>
  </defs>
  <path class="st0" d="M37.24,46.95h1.66c2.6,0,4.27,2.77,3.05,5.07l-1.75,3.32h2.96c1.09,0,1.97.88,1.97,1.97v.49h-11.34c-2.46,0-8.36-2.21-4.44-10.84,2.46-5.42-3.02-8.38-3.02-8.38,0,0,4.5-1.48,5.98,1.48M50.36,36.6h3.77c.88,0,1.66-.59,1.9-1.44l.85-3.05c.03-.11-.04-.23-.15-.25-.79-.14-3.54-.69-4.17-1.39-.3-.34-.55-1.14-.7-1.78-.13-.52-.71-1.09-1.24-1.16-.88-.13-2.09-.3-3.03-.3-2.93,0-5.1,2.36-5.53,5.42-.55,3.82-1.94,6.34-4.82,8.76-2.39,2-5.92,4.06-5.92,10.96v1.48M47.6,30.68c0,4.44,2.96,4.44,2.96,6.9,0,1.48-.99,2.96-2.96,2.96-1.63,0-2.96-1.33-2.96-2.96v-4.93M49.57,42.52v.78c0,1.17-.3,2.32-.86,3.35l-1.11,2v6.69h.99c1.09,0,1.97.88,1.97,1.97v.49h-2.96"/>
</svg>