<?xml version="1.0" encoding="UTF-8"?>
<svg id="Layer_1" xmlns="http://www.w3.org/2000/svg" version="1.1" viewBox="0 0 85.04 85.04">
  <!-- Generator: Adobe Illustrator 29.5.1, SVG Export Plug-In . SVG Version: 2.1.0 Build 141)  -->
  <defs>
    <style>
      .st0 {
        stroke-miterlimit: 10;
      }

      .st0, .st1 {
        fill: none;
        stroke: #B0ABAB;
      }

      .st1 {
        stroke-linecap: round;
        stroke-linejoin: round;
      }

      .st2 {
        fill: #B0ABAB;
      }
    </style>
  </defs>
  <g>
    <path class="st2" d="M38.36,36.03c0,.44-.36.79-.79.79s-.79-.36-.79-.79.36-.79.79-.79.79.36.79.79"/>
    <path class="st2" d="M43.26,36.03c0,.44-.36.79-.79.79s-.79-.36-.79-.79.36-.79.79-.79.79.36.79.79"/>
    <path class="st2" d="M48.16,36.03c0,.44-.36.79-.79.79s-.79-.36-.79-.79.35-.79.79-.79.79.36.79.79"/>
  </g>
  <polygon class="st1" points="32.02 51.38 30.62 55.86 32.2 55.86 34.72 51.38 32.02 51.38"/>
  <polygon class="st1" points="52.99 51.38 54.38 55.86 52.8 55.86 50.28 51.38 52.99 51.38"/>
  <g>
    <path class="st0" d="M53.01,32.92h3.27c1.41,0,2.57,1.03,2.57,2.29l-2,13.88c0,1.26-1.16,2.29-2.57,2.29h-23.57c-1.41,0-2.57-1.03-2.57-2.29l-2-13.88c0-1.26,1.16-2.29,2.57-2.29h3.88"/>
    <path class="st0" d="M32.44,42.16l-.04-10.97c0-1.51,1.22-2.73,2.73-2.73h14.67c1.51,0,2.87,1.2,2.87,2.71l-.17,10.62"/>
    <path class="st0" d="M33.67,41.51h17.62c1.22,0,2.21.99,2.21,2.21v1.81c0,1.22-.99,2.21-2.21,2.21h-17.62c-1.22,0-2.21-.99-2.21-2.21v-1.81c0-1.22.99-2.21,2.21-2.21Z"/>
  </g>
</svg>