<?xml version="1.0" encoding="UTF-8"?>
<svg id="Layer_1" xmlns="http://www.w3.org/2000/svg" version="1.1" viewBox="0 0 85.04 85.04">
  <!-- Generator: Adobe Illustrator 29.5.1, SVG Export Plug-In . SVG Version: 2.1.0 Build 141)  -->
  <defs>
    <style>
      .st0 {
        stroke-miterlimit: 10;
      }

      .st0, .st1 {
        fill: none;
        stroke: #2a105c;
      }

      .st1 {
        stroke-linejoin: round;
      }
    </style>
  </defs>
  <path class="st0" d="M49.65,47.57c-.4.52-.86.99-1.42,1.32-1.86,1.08-5.21.16-9.21-3.85s-4.92-7.35-3.84-9.21c.32-.56.8-1.02,1.32-1.42,1.08-.83,1.69-.1,2,.32.32.42,1.55,2.37,1.76,2.68s.48,1.1-.21,1.68c-.91.77-2.01,1.42.75,4.18s3.41,1.66,4.18.75c.58-.69,1.37-.42,1.68-.21.32.21,2.26,1.45,2.68,1.76s1.14.92.32,2c0,0,0,0-.01,0Z"/>
  <path class="st1" d="M36.97,54.51l-5.69,2.53c-1.05.47-2.19-.47-1.92-1.59l1.47-6.17c-1.4-2.17-2.22-4.74-2.22-7.51,0-7.66,6.24-13.9,13.9-13.9s13.9,6.24,13.9,13.9-6.24,13.9-13.9,13.9c-1.97,0-3.84-.42-5.54-1.16Z"/>
</svg>