<?xml version="1.0" encoding="UTF-8"?>
<svg id="Layer_1" xmlns="http://www.w3.org/2000/svg" version="1.1" viewBox="0 0 85.04 85.04">
  <!-- Generator: Adobe Illustrator 29.5.1, SVG Export Plug-In . SVG Version: 2.1.0 Build 141)  -->
  <defs>
    <style>
      .st0 {
        stroke-linecap: round;
      }

      .st0, .st1 {
        fill: none;
        stroke: #B0ABAB;
        stroke-linejoin: round;
      }
    </style>
  </defs>
  <path class="st1" d="M43.49,47.81c-.05.29.04.57.23.79.18.2.44.31.71.31h.05l11.31-.6c.2,0,.39-.11.51-.26.12-.16.17-.36.13-.56-1.27-7.04-6.6-16.92-12.41-22.99-.14-.14-.44-.3-.67-.13-.13.09-.24.28-.05.66.55,1.08,1.13,16.94.18,22.79h0Z"/>
  <path class="st1" d="M32.92,47.62h.05l7.57-.43c.6-.03,1.07-.53,1.07-1.13v-19.62c0-.24-.17-.44-.4-.49-.24-.05-.47.07-.56.3l-8.55,20.15c-.12.28-.09.6.09.86.17.24.44.38.72.38v-.02h.01Z"/>
  <path class="st1" d="M30.53,57.84l.96.79c.13.1.31.1.43,0l.97-.79c1.14-.93,2.79-.93,3.93,0l.97.79c.13.1.31.1.44,0l.04-.03.18-.15.75-.61h0l.04-.03c1.14-.93,2.79-.92,3.92,0l.97.79c.13.1.31.1.43,0l.97-.8c1.14-.93,2.79-.93,3.93,0l.97.8c.12.1.31.1.43,0l.97-.8c.59-.48,1.33-.73,2.08-.7.12,0,.24-.06.3-.17l2.37-6.03c.07-.12.06-.26,0-.38-.07-.12-.21-.19-.35-.19l-13.22.74-.4-.35c-.82-.72-2.04-1.66-3.15-1.63l-2.92.04c-.97-.02-1.89.55-2.14,1.34-.02.06-.03.13-.04.2l-.06.86h-.34c-1.26.1-2.4.74-3.15,1.76l-1.25,2.1c-.14.24-.05,1.88.2,1.99.22.09.42.21.62.35.04.03.09.07.14.11h0Z"/>
  <path class="st0" d="M40.25,59.46l.05-.04c.46-.38,1.14-.38,1.6,0l.97.79c.8.66,1.96.66,2.76,0l.97-.79c.46-.38,1.14-.38,1.6,0l.97.8c.8.66,1.97.66,2.77,0l.97-.79c.24-.19.54-.3.85-.28.28,0,.54.11.75.28l.97.8c.4.33.89.49,1.38.49s.98-.16,1.38-.49M29.2,59.42s.03.02.05.04l.97.79c.4.33.89.49,1.38.49s.98-.16,1.38-.49l.97-.79c.46-.38,1.14-.38,1.6,0l.97.79c.8.66,1.96.66,2.77,0l.96-.78M26.79,60.16l.86-.7c.45-.37,1.08-.38,1.55-.04"/>
</svg>