<?xml version="1.0" encoding="UTF-8"?>
<svg id="Layer_1" xmlns="http://www.w3.org/2000/svg" version="1.1" viewBox="0 0 85.04 85.04">
  <!-- Generator: Adobe Illustrator 29.5.1, SVG Export Plug-In . SVG Version: 2.1.0 Build 141)  -->
  <defs>
    <style>
      .st0 {
        fill: none;
        stroke: #000000;
        stroke-linecap: round;
        stroke-linejoin: round;
      }
    </style>
  </defs>
  <path class="st0" d="M36.86,33.8l-3.43,1.23c-1.01.34-1.56.9-1.22,1.91l.14.39c.34,1.01,1.3,1.17,2.31.83l3.15-1.23M48.27,33.84l3.43,1.23c1.01.34,1.56.9,1.22,1.91l-.14.39c-.34,1.01-1.3,1.17-2.31.83l-3.14-1.23M40.02,54.96h6.11v-2.97c0-1.93-1.57-3.5-3.5-3.5h-.15c-.12,0-.24,0-.36.02-1.79.18-3.15,1.68-3.15,3.49v2.97h1.05ZM44.13,59.19h-3.15c-1.1,0-1.99-.9-1.99-2v-1.53h-.01c-.38,0-.69-.31-.69-.69v-.46h-.43c-1.24,0-2.43-.53-3.26-1.46-.83-.93-1.22-2.17-1.07-3.41l1.33-9.08c0-.12.03-.24.06-.36,0-.03,0-.06.02-.09v-.04c.03-.08.05-.15.07-.23,0-.04.02-.07.04-.11v-.04c.03-.06.05-.13.08-.19.02-.05.04-.1.06-.14h0c.02-.07.05-.12.08-.18s.05-.11.08-.16c.03-.05.05-.1.08-.15.03-.06.07-.11.1-.17.03-.04.05-.08.08-.12.04-.05.08-.11.13-.17.02-.02.04-.05.06-.07l.02-.02c.05-.06.1-.12.16-.18.01-.01.02-.02.03-.04h.01c.51-.56,1.14-.95,1.84-1.18-.01-.03-.02-.05-.03-.08M37.21,33.54l-1.04-2.62c-.23-.39-.65-.63-1.1-.63h-.1c-.14.53-.35.8-.77,1.16h0s-.02.03-.03.04c-.04.04-.09.07-.13.11h0s-.04.04-.06.05c-.04.03-.09.06-.13.09-.03.02-.06.04-.09.06-.04.02-.08.05-.12.07-.04.02-.07.04-.11.05-.04.02-.08.04-.12.05-.04.02-.09.03-.13.05h0s-.07.03-.1.04c-.05,0-.1.03-.15.04h-.02s-.06.02-.08.03c-.06,0-.12.02-.17.03h-.36c-1.54,0-2.79-1.25-2.79-2.79s1.25-2.79,2.79-2.79h.36s.11.02.17.03c.03,0,.06,0,.08.02h.03s.1.03.15.04c.04,0,.07.02.1.03h0s.09.03.13.05.08.03.12.05c.04.02.07.03.11.05s.08.04.12.07c.03.02.06.04.09.06.04.03.09.06.13.08.02.02.05.03.07.05h0s.09.07.13.11c0,0,.02.02.04.03h0s.09.1.14.14l.02.02c.33.35.56.77.68,1.22h.1c.97,0,1.87.53,2.33,1.38.01.02.03.05.03.07l.8,1.94c.12-.19.26-.36.41-.53l.02-.02c.21-.24.45-.46.71-.65.04-.03.08-.06.12-.09.08-.06.15-.1.21-.14.07-.04.13-.08.19-.12.09-.05.18-.1.28-.15.07-.04.15-.08.24-.12.05-.02.11-.05.17-.07.09-.04.19-.07.28-.1h.04s.06-.04.09-.04c.14-.04.28-.08.42-.11.03,0,.06,0,.08-.02h.04c.12-.03.23-.05.35-.06h.12c.35-.03.58-.03.93,0h.13c.11,0,.23.03.35.06h.04s.06.02.08.02c.14.03.28.07.42.11.03,0,.06.02.09.03h.04c.1.05.19.08.28.12.06.02.11.05.17.07.09.04.17.08.24.12.09.05.18.1.27.15.06.03.13.08.2.12.08.05.15.1.21.14.04.03.08.06.12.09.25.19.49.41.7.65l.02.02c.15.17.29.35.41.53l.8-1.94s.02-.05.03-.07c.47-.85,1.36-1.38,2.33-1.38h.1c.12-.46.35-.88.68-1.22,0,0,.01,0,.02-.02.05-.05.1-.09.14-.13h.01s.03-.04.04-.05c.04-.04.09-.07.13-.1h0s.04-.04.07-.06c.04-.03.08-.06.13-.08l.09-.06s.08-.05.12-.07.08-.04.11-.05c.04-.02.08-.04.12-.05.04-.02.09-.03.13-.05h.01s.07-.03.1-.04c.05,0,.1-.03.15-.04h.02s.06-.02.08-.03c.06,0,.12-.02.18-.03h.36c1.54,0,2.79,1.25,2.79,2.79s-1.25,2.79-2.79,2.79h-.36s-.11-.02-.17-.03c-.03,0-.06,0-.08-.02h-.03s-.1-.03-.15-.04c-.04,0-.07-.02-.11-.03h-.01s-.08-.03-.13-.05c-.04-.02-.08-.03-.12-.05s-.07-.03-.11-.05-.08-.04-.12-.07l-.09-.06s-.09-.06-.13-.09c-.02,0-.04-.03-.06-.04h-.01s-.09-.08-.14-.12c-.01,0-.02-.02-.03-.03h-.01c-.41-.38-.59-.66-.72-1.19h-.1c-.45,0-.88.24-1.1.63l-1.06,2.53M47.43,36.63h-.05c-.03.07-.05.14-.08.21h0s-.02.06-.03.09c.7.22,1.33.62,1.84,1.16h.01s.02.04.04.05c.06.06.11.12.15.18l.02.02s.04.05.06.07c.05.06.09.12.12.17.03.04.06.08.08.12.04.05.07.11.1.17.03.05.06.1.08.15.03.05.06.1.08.16.03.06.05.11.08.17h0c.02.06.04.1.06.15.03.07.05.14.07.19v.04s.04.07.05.11c.02.08.04.15.06.23v.04s.02.06.03.09c.03.13.04.25.06.36l1.33,9.08c.15,1.23-.24,2.48-1.07,3.41s-2.01,1.46-3.26,1.46h-.43v.46c0,.38-.31.69-.69.69h-.01v1.53c0,1.1-.9,2-2,2M47.66,34.94c0,2.78-2.25,5.03-5.03,5.03s-5.03-2.25-5.03-5.03,2.25-5.03,5.03-5.03,5.03,2.25,5.03,5.03ZM45.14,34.94c0,1.39-1.13,2.51-2.51,2.51s-2.51-1.13-2.51-2.51,1.13-2.51,2.51-2.51,2.51,1.12,2.51,2.51Z"/>
</svg>