<?xml version="1.0" encoding="UTF-8"?>
<svg id="Layer_1" xmlns="http://www.w3.org/2000/svg" version="1.1" viewBox="0 0 85.04 85.04">
  <!-- Generator: Adobe Illustrator 29.5.1, SVG Export Plug-In . SVG Version: 2.1.0 Build 141)  -->
  <defs>
    <style>
      .st0 {
        fill: none;
        stroke: #2a105c;
        stroke-linecap: round;
        stroke-linejoin: round;
      }
    </style>
  </defs>
  <path class="st0" d="M35.72,53.05l3.32-.35-.39-3.72-3.32.35.39,3.72ZM41.36,52.46l3.32-.35-.39-3.72-3.32.35.39,3.72ZM35.14,47.52l3.32-.35-.39-3.72-3.32.35s.39,3.72.39,3.72ZM40.78,46.93l3.32-.35-.39-3.72-3.32.35.39,3.72ZM34.55,41.99l3.32-.35-.39-3.72-3.32.35.39,3.72ZM40.19,41.4l3.32-.35-.39-3.72-3.32.35.39,3.72ZM47,51.87l3.32-.35-.97-9.25-3.32.35.97,9.25ZM45.83,40.81l3.32-.35-.39-3.72-3.32.35.39,3.72ZM48.88,35.04l-14.87,1.56-.56-5.3,14.88-1.56.56,5.3h0ZM53.06,51.07c.15,1.41-.8,2.68-2.11,2.82l-15.07,1.58c-1.31.14-2.51-.9-2.65-2.32l-2.26-21.45c-.15-1.41.8-2.68,2.11-2.82l15.07-1.58c1.31-.14,2.5.91,2.65,2.32l2.25,21.45h.01Z"/>
</svg>