<?xml version="1.0" encoding="UTF-8"?>
<svg id="Layer_1" xmlns="http://www.w3.org/2000/svg" version="1.1" viewBox="0 0 85.04 85.04">
  <!-- Generator: Adobe Illustrator 29.5.1, SVG Export Plug-In . SVG Version: 2.1.0 Build 141)  -->
  <defs>
    <style>
      .st0 {
        fill: none;
        stroke: #2a105c;
        stroke-linecap: round;
        stroke-linejoin: round;
      }

      .st1 {
        fill: #2a105c;
      }
    </style>
  </defs>
  <path class="st0" d="M29.03,48.24l-4.11,1.83c-.76.34-1.58-.34-1.38-1.15l1.06-4.46c-1.01-1.56-1.6-3.42-1.6-5.42,0-5.53,4.5-10.03,10.03-10.03s10.03,4.5,10.03,10.03-4.5,10.03-10.03,10.03c-1.42,0-2.77-.3-4-.84h0Z"/>
  <path class="st1" d="M44.23,46.46c0,.73.59,1.32,1.32,1.32s1.32-.59,1.32-1.32-.59-1.32-1.32-1.32-1.32.59-1.32,1.32M48.55,46.46c0,.73.59,1.32,1.32,1.32s1.32-.59,1.32-1.32-.59-1.32-1.32-1.32-1.32.59-1.32,1.32M52.87,46.46c0,.73.59,1.32,1.32,1.32s1.32-.59,1.32-1.32-.59-1.32-1.32-1.32-1.32.59-1.32,1.32"/>
  <path class="st1" d="M33.4,44.07c.19-.11.34-.26.45-.45.12-.19.17-.39.18-.62,0-.34-.13-.63-.38-.87-.25-.24-.53-.36-.86-.36s-.64.12-.88.36-.36.53-.36.87.12.63.36.87c.24.24.53.36.88.36.22,0,.42-.06.61-.17M33.72,40.94v-.18c0-.34.05-.62.13-.85s.21-.43.39-.61c.17-.18.4-.34.67-.51.32-.19.6-.41.84-.65s.42-.51.56-.83c.13-.31.2-.67.2-1.07,0-.6-.15-1.12-.45-1.54-.3-.43-.71-.75-1.24-.98-.53-.22-1.13-.34-1.82-.34-.62,0-1.19.11-1.71.33s-.93.56-1.24,1.01c-.31.45-.48,1.02-.49,1.71h2.1c0-.28.08-.52.21-.71s.29-.33.49-.43.41-.15.63-.15.44.05.63.14c.19.1.34.23.46.41.11.18.17.39.17.62s-.05.43-.15.61c-.1.18-.23.35-.4.49-.17.15-.36.29-.57.43-.29.18-.53.38-.73.6s-.36.51-.46.87-.16.84-.16,1.44v.18h1.96-.02,0Z"/>
  <path class="st0" d="M46.61,36.49c1.04-.35,2.15-.54,3.31-.53,5.53.05,9.99,4.59,9.94,10.12,0,1.42-.33,2.77-.87,3.99l1.79,4.12c.33.76-.35,1.57-1.16,1.37l-4.45-1.1c-1.57,1-3.43,1.57-5.43,1.55-3.98-.03-7.41-2.4-9-5.78"/>
</svg>