<?xml version="1.0" encoding="UTF-8"?>
<svg id="Layer_1" xmlns="http://www.w3.org/2000/svg" version="1.1" viewBox="0 0 85.04 85.04">
  <!-- Generator: Adobe Illustrator 29.5.1, SVG Export Plug-In . SVG Version: 2.1.0 Build 141)  -->
  <defs>
    <style>
      .st0 {
        stroke-miterlimit: 10;
      }

      .st0, .st1 {
        fill: none;
        stroke: #000000;
      }

      .st1 {
        stroke-linecap: round;
        stroke-linejoin: round;
      }

      .st2 {
        fill: #000000;
      }
    </style>
  </defs>
  <polygon class="st2" points="53.65 47.17 52.34 51.86 54.53 51.86 52.97 57.17 56.73 50.93 54.19 50.93 55.52 47.17 53.65 47.17"/>
  <g>
    <path class="st0" d="M30.82,45.33c-1.19,0-2.16-.97-2.16-2.16s.97-2.16,2.16-2.16,2.16.97,2.16,2.16-.97,2.16-2.16,2.16ZM49.29,42.84l-1.01,1.71c-.18.3-.5.48-.84.48h-9.82c-.35,0-.67-.18-.84-.48l-1.02-1.73c-.23-.39.05-.88.5-.88h12.53c.46,0,.75.5.51.9h0ZM54.21,45.33c-1.19,0-2.16-.97-2.16-2.16s.97-2.16,2.16-2.16,2.16.97,2.16,2.16-.97,2.16-2.16,2.16Z"/>
    <path class="st1" d="M58.32,48.86c.22-.28.4-.7.56-1.21.15-.51.27-1.12.35-1.78.31-2.74-.1-6.32-1.71-7.42h0c-.68-.56.82-.68.82-.68.64,0,1.16-.52,1.16-1.16s-.52-1.16-1.16-1.16h-2.19l-.19-.07-2.9-5.34c-1.05-1.96-2.05-1.66-3.46-1.66h-14c-1.41,0-2.49-.38-3.46,1.66l-2.81,5.42h-2.62c-.64,0-1.16.52-1.16,1.16s.52,1.16,1.16,1.16c0,0,1.5.12.82.68-.09.07-.17.14-.23.21-2.14,1.93-1.86,8.57-.58,10.22.95,1.22,14.35,1.58,23.4,1.1"/>
  </g>
  <path class="st1" d="M51.98,36.35h-18.85c-.28,0-.51-.23-.51-.51l1.57-4.1c.24-.57.33-1.17,1.28-1.11l14-.08c1.14,0,1.36.83,1.58,1.36l1.44,3.93c0,.28-.23.51-.51.51Z"/>
  <path class="st1" d="M27.18,49.2v2.33c0,.61.5,1.11,1.11,1.11h3.24c.55,0,.99-.44.99-.99v-1.59"/>
</svg>