<?xml version="1.0" encoding="UTF-8"?>
<svg id="Layer_1" xmlns="http://www.w3.org/2000/svg" version="1.1" viewBox="0 0 85.04 85.04">
  <!-- Generator: Adobe Illustrator 29.5.1, SVG Export Plug-In . SVG Version: 2.1.0 Build 141)  -->
  <defs>
    <style>
      .st0 {
        stroke-linecap: round;
      }

      .st0, .st1 {
        fill: none;
        stroke: #14142b;
        stroke-linejoin: round;
      }
    </style>
  </defs>
  <g>
    <path class="st1" d="M41.99,41.52c.29.29.76.29,1.05,0,.74-.75,2.2-1.26,3.87-1.26s3.1.5,3.84,1.24c.3.3.78.28,1.07-.03.69-.72,1.99-1.21,3.47-1.21,1.89,0,3.48.79,3.89,1.85.12.32.39.55.73.55h.19c.45,0,.79-.39.76-.83-.55-7.72-8.77-14.34-18.34-14.34s-17.78,6.62-18.34,14.34c-.03.45.31.83.76.83h.19c.34,0,.61-.23.73-.55.41-1.06,2-1.85,3.89-1.85,1.49,0,2.78.49,3.47,1.21.29.31.77.32,1.07.03.75-.74,2.19-1.24,3.84-1.24s3.13.51,3.87,1.26c0,0,0,0,0,0ZM51.3,41.47c0-8.08-6.44-13.98-8.79-13.98M33.73,41.52c0-8.08,6.44-14.04,8.79-14.04"/>
    <path class="st0" d="M42.52,41.77v14.11c0,1.32.94,2.26,2.26,2.26h1.13c1.32,0,2.26-.94,2.26-2.26v-2.26"/>
  </g>
  <line class="st0" x1="42.52" y1="27.48" x2="42.52" y2="25.8"/>
</svg>