<svg width="50" height="50" viewBox="0 0 50 50" fill="none" xmlns="http://www.w3.org/2000/svg">
    <rect width="50" height="50" rx="25" fill="white" />
    <g clip-path="url(#clip0_885_15477)">
        <path
            d="M13.1887 24.6135C13.1201 24.6135 13.0515 24.5936 12.9901 24.5521C12.8313 24.442 12.7916 24.2236 12.9017 24.0647L15.5246 20.2738C15.6347 20.115 15.8532 20.0752 16.012 20.1854C16.1709 20.2955 16.2106 20.5139 16.1005 20.6728L13.4775 24.4637C13.4089 24.5611 13.3006 24.6153 13.1887 24.6153V24.6135Z"
            fill="#2A105C" />
        <path
            d="M26.0648 24.6171C25.9546 24.6171 25.8445 24.5648 25.7759 24.4655L23.1512 20.671C23.0411 20.5121 23.0808 20.2937 23.2396 20.1836C23.3985 20.0753 23.6169 20.1132 23.727 20.272L26.3518 24.0666C26.4619 24.2254 26.4222 24.4438 26.2633 24.554C26.202 24.5955 26.1334 24.6153 26.0648 24.6153V24.6171Z"
            fill="#2A105C" />
        <path
            d="M21.9397 39.8004H17.3111C17.118 39.8004 16.9609 39.6433 16.9609 39.4502V32.7637C16.9609 32.1482 17.4628 31.6445 18.0802 31.6445H21.1706C21.788 31.6445 22.2899 32.1464 22.2899 32.7637V39.4502C22.2899 39.6433 22.1328 39.8004 21.9397 39.8004ZM17.6614 39.1H21.5894V32.7637C21.5894 32.5327 21.4017 32.3449 21.1706 32.3449H18.0802C17.8491 32.3449 17.6614 32.5327 17.6614 32.7637V39.1Z"
            fill="#2A105C" />
        <path
            d="M21.4198 27.4074H17.8292C17.3509 27.4074 16.9609 27.0175 16.9609 26.5391V25.2773C16.9609 23.8078 18.156 22.6128 19.6254 22.6128C21.0948 22.6128 22.2899 23.8078 22.2899 25.2773V26.5391C22.2899 27.0175 21.8999 27.4074 21.4216 27.4074H21.4198ZM19.6254 23.3132C18.5423 23.3132 17.6614 24.1941 17.6614 25.2773V26.5391C17.6614 26.633 17.7372 26.707 17.831 26.707H21.4216C21.5154 26.707 21.5913 26.6311 21.5913 26.5391V25.2773C21.5913 24.1941 20.7103 23.3132 19.6272 23.3132H19.6254Z"
            fill="#2A105C" />
        <path
            d="M25.6628 39.8023H13.5879C13.1673 39.8023 12.8369 39.3944 12.8369 38.8727V24.2632C12.8369 24.1928 12.8586 24.1224 12.8983 24.0647L18.9746 15.2788C19.3013 14.8131 19.9476 14.8149 20.2707 15.2788L26.3506 24.0683C26.3903 24.126 26.412 24.1965 26.412 24.2669V38.8727C26.412 39.3944 26.0816 39.8023 25.661 39.8023H25.6628ZM13.5373 24.3716V38.8727C13.5373 39.0135 13.5951 39.0947 13.615 39.1073L25.6628 39.1019C25.6628 39.1019 25.7133 39.0135 25.7133 38.8727V24.3752L19.6966 15.6778C19.6605 15.6254 19.6298 15.6146 19.6226 15.6146C19.6154 15.6146 19.5865 15.6254 19.5486 15.6796L13.5355 24.3716H13.5373Z"
            fill="#2A105C" />
        <path
            d="M28.2344 27.4257C27.9726 27.4257 27.7253 27.2849 27.5575 27.0412L19.6976 15.6775C19.6615 15.6251 19.6309 15.6143 19.6254 15.6143C19.62 15.6143 19.5893 15.6251 19.5514 15.6793L11.6898 27.043C11.5219 27.2867 11.2746 27.4275 11.0129 27.4275C10.7511 27.4275 10.5038 27.2867 10.3359 27.043L9.39001 25.6746C9.09396 25.2468 9.09396 24.5789 9.39001 24.1511L18.6524 10.762C18.898 10.4045 19.2518 10.1987 19.6254 10.1987C19.9973 10.1987 20.3529 10.4045 20.6021 10.762L29.8591 24.1493C30.1551 24.5717 30.1551 25.2396 29.8591 25.6692L28.9132 27.0412C28.7435 27.2849 28.498 27.4257 28.2362 27.4257H28.2344ZM19.6236 14.9139C19.8728 14.9139 20.1092 15.0457 20.2717 15.2767L28.1333 26.6422C28.2109 26.7559 28.2579 26.7559 28.3355 26.6422L29.2814 25.2703C29.4132 25.0807 29.4132 24.7359 29.2814 24.5482L20.0262 11.1609C19.9089 10.9912 19.7681 10.8991 19.6254 10.8991C19.4846 10.8991 19.3438 10.993 19.2283 11.1609L9.96586 24.5482C9.83408 24.7377 9.83408 25.0843 9.96586 25.2757L10.9136 26.644C10.9912 26.7578 11.0381 26.7578 11.1158 26.644L18.9756 15.2785C19.138 15.0457 19.3745 14.9139 19.6236 14.9139Z"
            fill="#2A105C" />
        <path
            d="M38.4889 39.7979H24.9879C24.7947 39.7979 24.6377 39.6408 24.6377 39.4477C24.6377 39.2545 24.7947 39.0975 24.9879 39.0975H38.1387V30.6853H26.0638C25.8706 30.6853 25.7136 30.5282 25.7136 30.3351C25.7136 30.1419 25.8706 29.9849 26.0638 29.9849H38.4889C38.6821 29.9849 38.8391 30.1419 38.8391 30.3351V39.4477C38.8391 39.6408 38.6821 39.7979 38.4889 39.7979Z"
            fill="#2A105C" />
        <path
            d="M27.6863 26.9524H26.0616C25.8685 26.9524 25.7114 26.7953 25.7114 26.6022C25.7114 26.409 25.8685 26.252 26.0616 26.252H27.6863C27.8795 26.252 28.0365 26.409 28.0365 26.6022C28.0365 26.7953 27.8795 26.9524 27.6863 26.9524Z"
            fill="#2A105C" />
        <path
            d="M40.0898 30.6855H26.0616C25.8685 30.6855 25.7114 30.5285 25.7114 30.3353C25.7114 30.1421 25.8685 29.9851 26.0616 29.9851H40.0898C40.0898 29.9851 40.115 29.9851 40.1277 29.958C40.1421 29.9273 40.1277 29.9093 40.1223 29.9021C40.1042 29.8804 40.088 29.8551 40.0753 29.828L38.7973 27.1257C38.6817 27.0137 38.5319 26.9524 38.3694 26.9524H28.7839C28.5907 26.9524 28.4337 26.7953 28.4337 26.6022C28.4337 26.409 28.5907 26.252 28.7839 26.252H38.3694C38.7431 26.252 39.1023 26.4126 39.3515 26.6906C39.3731 26.7159 39.393 26.7448 39.4074 26.7755L40.6927 29.4941C40.8534 29.7161 40.8804 30.0013 40.7631 30.2541C40.6386 30.5194 40.3822 30.6837 40.0916 30.6837L40.0898 30.6855Z"
            fill="#2A105C" />
        <path
            d="M36.3456 26.9526H28.7837C28.5905 26.9526 28.4335 26.7955 28.4335 26.6023C28.4335 26.4092 28.5905 26.2521 28.7837 26.2521H35.9972V19.5188H26.0416C25.8485 19.5188 25.6914 19.3617 25.6914 19.1686C25.6914 18.9754 25.8485 18.8184 26.0416 18.8184H36.3475C36.5406 18.8184 36.6977 18.9754 36.6977 19.1686V26.6023C36.6977 26.7955 36.5406 26.9526 36.3475 26.9526H36.3456Z"
            fill="#2A105C" />
        <path
            d="M27.6863 26.9524H26.0616C25.8685 26.9524 25.7114 26.7953 25.7114 26.6022C25.7114 26.409 25.8685 26.252 26.0616 26.252H27.6863C27.8795 26.252 28.0365 26.409 28.0365 26.6022C28.0365 26.7953 27.8795 26.9524 27.6863 26.9524Z"
            fill="#2A105C" />
        <path
            d="M37.6603 19.5193H25.988C25.7948 19.5193 25.6378 19.3622 25.6378 19.1691C25.6378 18.9759 25.7948 18.8189 25.988 18.8189H37.6603C37.6405 18.7954 37.6044 18.8081 37.5917 18.781L36.5501 16.5823C36.4707 16.5064 36.366 16.4631 36.2613 16.4631H23.8795C23.6863 16.4631 23.5293 16.3061 23.5293 16.1129C23.5293 15.9197 23.6863 15.7627 23.8795 15.7627H36.2613C36.5826 15.7627 36.8895 15.9053 37.1061 16.1508C37.1278 16.1743 37.1459 16.2032 37.1585 16.232L38.2073 18.447C38.3463 18.6438 38.3716 18.9037 38.2669 19.1294C38.155 19.3695 37.9221 19.5193 37.6585 19.5193H37.6603Z"
            fill="#2A105C" />
    </g>
    <defs>
        <clipPath id="clip0_885_15477">
            <rect width="31.6667" height="29.6033" fill="white" transform="translate(9.1665 10.1982)" />
        </clipPath>
    </defs>
</svg>