<svg width="45" height="45" viewBox="0 0 45 45" fill="none" xmlns="http://www.w3.org/2000/svg">
    <rect width="45" height="45" rx="22.5" fill="white" />
    <path
        d="M21.0441 34.9999C20.5871 34.9999 16.5153 34.9213 14.1649 32.1999C12.4287 30.1886 12.0489 27.2693 13.0327 23.5206L13.3235 22.412L13.7182 23.4935C13.9393 24.0993 14.6827 25.624 15.5953 25.8883C15.9485 25.3868 16.8848 23.7713 16.0123 21.7357C15.2347 19.921 15.4543 17.945 16.6652 15.8605C17.5422 14.3494 18.9771 12.742 20.9209 11.0615C21.9344 10.1846 22.5799 10.0369 22.6452 10.0017C22.709 9.96777 22.3217 10.5112 22.068 11.2594C21.8602 11.8665 21.7252 12.9887 22.8381 14.4931C23.1557 14.9227 23.4984 15.332 23.8308 15.7291C25.2346 17.4042 26.5715 18.9994 25.4126 21.4226C26.0759 20.8778 26.7585 19.9901 26.6532 18.6863L26.5908 17.9003L27.2437 18.4153C27.2942 18.4559 28.4976 19.4128 29.3434 20.8724C30.2263 22.3944 30.3851 23.8893 29.8257 25.2649C30.3243 24.8054 30.8125 24.0912 30.8674 23.0381L30.9475 21.4714L31.5588 22.9378C31.6508 23.1601 33.801 28.4281 31.2769 31.9356C29.9652 33.7571 27.6414 34.7464 24.3695 34.8779L23.2803 34.9213L24.1291 34.2978C24.2671 34.1948 27.315 31.8624 25.7791 27.2612C25.3741 28.0364 24.4837 29.1654 22.5324 30.3052L21.5605 30.873L22.0116 29.9027C22.0249 29.8742 23.2744 27.0118 20.6212 22.7847C20.0915 23.6643 18.9934 25.6633 18.4562 27.8738C17.7247 30.892 19.075 32.6756 21.329 34.4239L22.0413 34.9768L21.1064 34.9999C21.1064 34.9999 21.0842 34.9999 21.0441 34.9999ZM13.4927 24.6794C12.8739 27.7369 13.2864 30.1276 14.7258 31.7946C16.2957 33.6134 18.7352 34.1366 20.09 34.287C18.3271 32.7515 17.0065 30.8256 17.7573 27.7328C18.5022 24.6618 20.2354 22.0759 20.3096 21.9675L20.6123 21.5202L20.9165 21.9675C23.2165 25.3435 23.1764 27.9592 22.9301 29.2589C25.2613 27.6502 25.4008 26.2325 25.4022 26.2176L25.5135 24.8081L26.0908 26.1173C27.3862 29.0651 26.9143 31.2634 26.2911 32.5902C25.9691 33.2732 25.5803 33.7991 25.2524 34.1664C27.7987 33.9143 29.6224 33.0469 30.6774 31.5805C32.3097 29.3117 31.7651 26.1106 31.2888 24.3866C30.6195 25.9832 29.0481 26.5551 28.9665 26.5849L27.8759 26.9685L28.5451 26.0929C29.6788 24.6103 29.7381 22.9636 28.7202 21.199C28.2899 20.4536 27.7483 19.8397 27.3461 19.4358C27.0345 21.7425 24.5609 22.7142 24.5342 22.7237L23.4376 23.1411L24.0994 22.2399C26.0997 19.5144 24.8473 18.0195 23.2625 16.1275C22.9242 15.7237 22.574 15.3062 22.2446 14.8603C21.2786 13.5552 21.1272 12.471 21.2326 11.693C19.4341 13.2638 18.1135 14.7655 17.2988 16.1668C16.1904 18.0751 15.9826 19.8681 16.68 21.4972C17.8671 24.2674 16.1132 26.3626 16.039 26.4507L15.9188 26.5917L15.7244 26.5754C14.6931 26.4887 13.9378 25.4844 13.4942 24.6807L13.4927 24.6794Z"
        fill="#14142B" />
</svg>