<svg width="560" height="76" viewBox="0 0 560 76" fill="none" xmlns="http://www.w3.org/2000/svg">
    <g clip-path="url(#clip0_45_906)">
        <path d="M335.93 30.6299H327.13V37.0699H335.56V39.5699H327.13V47.9999H324.49V28.1299H335.93V30.6299Z"
            fill="#FFFFFF" />
        <path
            d="M349.791 30.78C351.781 28.76 354.221 27.77 357.091 27.77C359.961 27.77 362.401 28.76 364.391 30.78C366.411 32.77 367.401 35.21 367.401 38.08C367.401 40.95 366.411 43.36 364.391 45.38C362.401 47.4 359.961 48.39 357.091 48.39C354.221 48.39 351.781 47.4 349.791 45.38C347.801 43.36 346.811 40.95 346.811 38.08C346.811 35.21 347.801 32.77 349.791 30.78ZM362.541 32.56C361.091 31.06 359.281 30.32 357.091 30.32C354.901 30.32 353.091 31.06 351.611 32.56C350.161 34.04 349.421 35.88 349.421 38.07C349.421 40.26 350.161 42.07 351.611 43.58C353.091 45.06 354.901 45.79 357.091 45.79C359.281 45.79 361.091 45.05 362.541 43.58C364.021 42.08 364.751 40.26 364.751 38.07C364.751 35.88 364.011 34.04 362.541 32.56Z"
            fill="#FFFFFF" />
        <path
            d="M391.069 48.0099L386.609 40.3999H381.929V48.0099H379.289V28.1399H387.239C388.939 28.1399 390.389 28.7399 391.609 29.9599C392.829 31.1499 393.429 32.5999 393.429 34.2999C393.429 35.5799 393.029 36.7699 392.269 37.8199C391.499 38.8699 390.539 39.6399 389.319 40.0599L393.999 48.0099H391.079H391.069ZM381.929 30.6099V38.0199H387.239C388.229 38.0199 389.059 37.6499 389.739 36.9399C390.449 36.1999 390.789 35.3199 390.789 34.2999C390.789 33.2799 390.449 32.3999 389.739 31.6899C389.059 30.9799 388.239 30.6099 387.239 30.6099H381.929Z"
            fill="#FFFFFF" />
        <path
            d="M403.93 43.49L406.2 42.18C406.97 44.59 408.76 45.79 411.51 45.79C414.26 45.79 415.71 44.57 415.71 42.72C415.71 41.78 415.34 41.07 414.63 40.59C413.92 40.11 412.7 39.62 411.02 39.09L409.12 38.47C408.69 38.3 408.13 38.04 407.47 37.73C406.82 37.39 406.33 37.05 406.02 36.71C405.37 36 404.77 34.84 404.77 33.39C404.77 31.66 405.37 30.3 406.59 29.3C407.81 28.28 409.29 27.77 411.02 27.77C414.17 27.77 416.58 29.5 417.75 32.11L415.54 33.39C414.69 31.35 413.18 30.32 411.03 30.32C408.88 30.32 407.42 31.46 407.42 33.27C407.42 34.15 407.73 34.8 408.36 35.26C408.98 35.71 410.06 36.2 411.6 36.68L412.76 37.05C412.99 37.14 413.33 37.25 413.81 37.45C414.8 37.82 415.03 37.96 415.8 38.39C416.59 38.82 416.85 39.13 417.33 39.7C418.04 40.41 418.32 41.43 418.32 42.68C418.32 44.41 417.7 45.8 416.42 46.85C415.14 47.87 413.5 48.38 411.45 48.38C407.73 48.38 404.98 46.53 403.93 43.5V43.49Z"
            fill="#FFFFFF" />
        <path d="M430.02 28.1399H432.66V48.0099H430.02V28.1399Z" fill="#FFFFFF" />
        <path
            d="M460.091 48.0099H456.851L448.281 38.4699V48.0099H445.641V28.1399H448.281V37.1099L456.571 28.1399H459.811L451.041 37.7899L460.101 48.0099H460.091Z"
            fill="#FFFFFF" />
        <path
            d="M482.95 48.0099L478.49 40.3999H473.81V48.0099H471.17V28.1399H479.12C480.82 28.1399 482.27 28.7399 483.49 29.9599C484.71 31.1499 485.31 32.5999 485.31 34.2999C485.31 35.5799 484.91 36.7699 484.15 37.8199C483.38 38.8699 482.42 39.6399 481.2 40.0599L485.88 48.0099H482.96H482.95ZM473.8 30.6099V38.0199H479.11C480.1 38.0199 480.93 37.6499 481.61 36.9399C482.32 36.1999 482.66 35.3199 482.66 34.2999C482.66 33.2799 482.32 32.3999 481.61 31.6899C480.93 30.9799 480.11 30.6099 479.11 30.6099H473.8Z"
            fill="#FFFFFF" />
        <path d="M497.23 28.1399H499.87V48.0099H497.23V28.1399Z" fill="#FFFFFF" />
        <path
            d="M525.19 28.1399H527.83V48.0099H525.7L515.48 33.1599V48.0099H512.84V28.1399H514.97L525.19 42.9599V28.1399Z"
            fill="#FFFFFF" />
        <path
            d="M559.97 38.16V39.35C559.97 41.93 559.09 44.09 557.3 45.82C555.51 47.52 553.15 48.38 550.23 48.38C547.31 48.38 544.69 47.39 542.71 45.4C540.75 43.38 539.76 40.94 539.76 38.08C539.76 35.22 540.75 32.77 542.71 30.78C544.7 28.76 547.2 27.77 550.18 27.77C552.03 27.77 553.7 28.22 555.23 29.1C556.76 29.98 557.96 31.12 558.78 32.56L556.51 33.89C555.37 31.73 552.9 30.31 550.15 30.31C547.88 30.31 546 31.05 544.56 32.55C543.11 34.03 542.37 35.87 542.37 38.06C542.37 40.25 543.11 42.09 544.56 43.57C546.04 45.05 547.94 45.78 550.27 45.78C554.24 45.78 556.8 43.62 557.34 40.53H550.04V38.15H559.98L559.97 38.16Z"
            fill="#FFFFFF" />
        <path d="M330.59 61.1401H325.57V65.1301H330.36V66.1501H325.57V70.9401H324.49V60.1201H330.6V61.1401H330.59Z"
            fill="#FFFFFF" />
        <path
            d="M336.509 71.13C335.379 71.13 334.409 70.74 333.619 69.97C332.829 69.18 332.439 68.22 332.439 67.08C332.439 65.94 332.829 64.98 333.619 64.2C334.409 63.41 335.379 63.02 336.509 63.02C337.639 63.02 338.599 63.41 339.389 64.2C340.179 64.97 340.579 65.93 340.579 67.08C340.579 68.23 340.179 69.18 339.389 69.97C338.599 70.74 337.639 71.13 336.509 71.13ZM336.509 70.14C337.359 70.14 338.089 69.85 338.669 69.26C339.259 68.66 339.549 67.93 339.549 67.08C339.549 66.23 339.259 65.5 338.669 64.92C338.079 64.32 337.359 64.02 336.509 64.02C335.659 64.02 334.929 64.31 334.349 64.92C333.759 65.51 333.469 66.23 333.469 67.08C333.469 67.93 333.759 68.66 334.349 69.26C334.939 69.85 335.659 70.14 336.509 70.14Z"
            fill="#FFFFFF" />
        <path
            d="M343.92 64.5001C344.4 63.5601 345.2 63.0901 346.36 63.0901V64.0801C344.95 64.0801 343.92 64.8701 343.92 66.6501V70.9501H342.9V63.2201H343.92V64.5001Z"
            fill="#FFFFFF" />
        <path
            d="M350.46 66.55C351.76 66.87 353.38 67.23 353.38 68.9C353.38 69.56 353.12 70.09 352.59 70.51C352.08 70.93 351.4 71.13 350.58 71.13C349.1 71.13 348.01 70.4 347.6 69.35L348.47 68.84C348.76 69.64 349.55 70.14 350.59 70.14C351.63 70.14 352.37 69.75 352.37 68.9C352.37 68.2 351.66 67.82 350.78 67.59C349.48 67.27 347.86 66.91 347.86 65.24C347.86 64.61 348.11 64.08 348.6 63.66C349.11 63.24 349.74 63.03 350.5 63.03C351.75 63.03 352.76 63.63 353.21 64.61L352.36 65.1C352.07 64.37 351.45 64.02 350.5 64.02C349.62 64.02 348.88 64.45 348.88 65.24C348.88 65.94 349.59 66.32 350.47 66.55H350.46Z"
            fill="#FFFFFF" />
        <path
            d="M355.61 61.36C355.32 61.07 355.32 60.6 355.61 60.31C355.9 60.02 356.37 60.02 356.66 60.31C356.95 60.6 356.95 61.07 356.66 61.36C356.37 61.65 355.9 61.65 355.61 61.36ZM355.62 70.94V63.21H356.64V70.94H355.62Z"
            fill="#FFFFFF" />
        <path
            d="M365.67 70.9401H364.31L360.44 67.2101V70.9401H359.42V60.1201H360.44V66.6301L364.12 63.2101H365.51L361.52 66.9201L365.66 70.9401H365.67Z"
            fill="#FFFFFF" />
        <path
            d="M368.7 64.5001C369.18 63.5601 369.98 63.0901 371.14 63.0901V64.0801C369.73 64.0801 368.7 64.8701 368.7 66.6501V70.9501H367.68V63.2201H368.7V64.5001Z"
            fill="#FFFFFF" />
        <path
            d="M373.139 61.36C372.849 61.07 372.849 60.6 373.139 60.31C373.429 60.02 373.899 60.02 374.189 60.31C374.479 60.6 374.479 61.07 374.189 61.36C373.899 61.65 373.429 61.65 373.139 61.36ZM373.159 70.94V63.21H374.179V70.94H373.159Z"
            fill="#FFFFFF" />
        <path
            d="M383.611 66.2V70.95H382.591V66.2C382.591 64.82 381.831 64.02 380.491 64.02C379.011 64.02 377.991 64.93 377.991 66.9V70.95H376.971V63.22H377.991V64.43C378.561 63.5 379.431 63.04 380.591 63.04C382.461 63.04 383.621 64.28 383.621 66.21L383.611 66.2Z"
            fill="#FFFFFF" />
        <path
            d="M392.86 63.21H393.88V70.63C393.88 71.74 393.49 72.62 392.74 73.26C391.98 73.89 391.07 74.22 390 74.22C388.19 74.22 386.97 73.59 386.34 72.33L387.24 71.82C387.7 72.76 388.63 73.23 390.01 73.23C391.79 73.23 392.87 72.22 392.87 70.63V69.42C392.16 70.55 391.12 71.12 389.75 71.12C388.65 71.12 387.71 70.73 386.92 69.94C386.15 69.15 385.76 68.19 385.76 67.06C385.76 65.93 386.15 64.97 386.92 64.18C387.71 63.39 388.65 63 389.75 63C391.13 63 392.16 63.57 392.87 64.7V63.18L392.86 63.21ZM389.81 70.14C390.66 70.14 391.39 69.85 391.97 69.26C392.56 68.66 392.85 67.93 392.85 67.08C392.85 66.23 392.56 65.5 391.97 64.92C391.38 64.32 390.66 64.02 389.81 64.02C388.96 64.02 388.23 64.31 387.65 64.92C387.06 65.51 386.77 66.23 386.77 67.08C386.77 67.93 387.06 68.66 387.65 69.26C388.24 69.85 388.96 70.14 389.81 70.14Z"
            fill="#FFFFFF" />
        <path
            d="M399.059 66.55C400.359 66.87 401.979 67.23 401.979 68.9C401.979 69.56 401.719 70.09 401.189 70.51C400.679 70.93 399.999 71.13 399.179 71.13C397.699 71.13 396.609 70.4 396.199 69.35L397.069 68.84C397.359 69.64 398.149 70.14 399.189 70.14C400.229 70.14 400.969 69.75 400.969 68.9C400.969 68.2 400.259 67.82 399.379 67.59C398.079 67.27 396.459 66.91 396.459 65.24C396.459 64.61 396.709 64.08 397.199 63.66C397.709 63.24 398.339 63.03 399.099 63.03C400.349 63.03 401.359 63.63 401.809 64.61L400.959 65.1C400.669 64.37 400.049 64.02 399.099 64.02C398.219 64.02 397.479 64.45 397.479 65.24C397.479 65.94 398.189 66.32 399.069 66.55H399.059Z"
            fill="#FFFFFF" />
        <path
            d="M408.009 60.9201C406.509 60.8001 405.779 61.4101 405.779 62.9001V63.2101H408.009V64.2001H405.779V70.9401H404.759V64.2001H403.449V63.2101H404.759V62.9001C404.759 60.8701 405.919 59.7901 408.009 59.9301V60.9201Z"
            fill="#FFFFFF" />
        <path
            d="M412.849 71.13C411.719 71.13 410.749 70.74 409.959 69.97C409.169 69.18 408.779 68.22 408.779 67.08C408.779 65.94 409.169 64.98 409.959 64.2C410.749 63.41 411.719 63.02 412.849 63.02C413.979 63.02 414.939 63.41 415.729 64.2C416.519 64.97 416.919 65.93 416.919 67.08C416.919 68.23 416.519 69.18 415.729 69.97C414.939 70.74 413.979 71.13 412.849 71.13ZM412.849 70.14C413.699 70.14 414.429 69.85 415.009 69.26C415.599 68.66 415.889 67.93 415.889 67.08C415.889 66.23 415.599 65.5 415.009 64.92C414.419 64.32 413.699 64.02 412.849 64.02C411.999 64.02 411.269 64.31 410.689 64.92C410.099 65.51 409.809 66.23 409.809 67.08C409.809 67.93 410.099 68.66 410.689 69.26C411.279 69.85 411.999 70.14 412.849 70.14Z"
            fill="#FFFFFF" />
        <path
            d="M420.25 64.5001C420.73 63.5601 421.53 63.0901 422.69 63.0901V64.0801C421.28 64.0801 420.25 64.8701 420.25 66.6501V70.9501H419.23V63.2201H420.25V64.5001Z"
            fill="#FFFFFF" />
        <path
            d="M435.839 66.12V70.94H434.819V66.12C434.819 64.77 434.059 64.02 432.929 64.02C431.649 64.02 430.779 64.85 430.779 66.66V70.94H429.759V66.12C429.759 64.76 429.059 64.02 427.949 64.02C426.709 64.02 425.719 64.87 425.719 66.66V70.94H424.699V63.21H425.719V64.34C426.279 63.46 427.069 63.03 428.089 63.03C429.199 63.03 429.989 63.49 430.439 64.44C430.999 63.5 431.829 63.03 432.939 63.03C434.669 63.03 435.829 64.22 435.829 66.12H435.839Z"
            fill="#FFFFFF" />
        <path
            d="M438.421 61.36C438.131 61.07 438.131 60.6 438.421 60.31C438.711 60.02 439.181 60.02 439.471 60.31C439.761 60.6 439.761 61.07 439.471 61.36C439.181 61.65 438.711 61.65 438.421 61.36ZM438.441 70.94V63.21H439.461V70.94H438.441Z"
            fill="#FFFFFF" />
        <path
            d="M448.889 60.1201H449.909V70.9401H448.889V69.4201C448.179 70.5501 447.139 71.1201 445.769 71.1201C444.669 71.1201 443.729 70.7301 442.939 69.9401C442.169 69.1501 441.779 68.1901 441.779 67.0601C441.779 65.9301 442.169 64.9701 442.939 64.1801C443.729 63.3901 444.669 63.0001 445.769 63.0001C447.149 63.0001 448.179 63.5701 448.889 64.7001V60.0901V60.1201ZM445.839 70.1401C446.689 70.1401 447.419 69.8501 447.999 69.2601C448.589 68.6601 448.879 67.9301 448.879 67.0801C448.879 66.2301 448.589 65.5001 447.999 64.9201C447.409 64.3201 446.689 64.0201 445.839 64.0201C444.989 64.0201 444.259 64.3101 443.679 64.9201C443.089 65.5101 442.799 66.2301 442.799 67.0801C442.799 67.9301 443.089 68.6601 443.679 69.2601C444.269 69.8501 444.989 70.1401 445.839 70.1401Z"
            fill="#FFFFFF" />
        <path d="M452.689 70.9399V59.6499H453.709V70.9399H452.689Z" fill="#FFFFFF" />
        <path
            d="M456.479 61.36C456.189 61.07 456.189 60.6 456.479 60.31C456.769 60.02 457.239 60.02 457.529 60.31C457.819 60.6 457.819 61.07 457.529 61.36C457.239 61.65 456.769 61.65 456.479 61.36ZM456.499 70.94V63.21H457.519V70.94H456.499Z"
            fill="#FFFFFF" />
        <path
            d="M466.951 66.2V70.95H465.931V66.2C465.931 64.82 465.171 64.02 463.831 64.02C462.351 64.02 461.331 64.93 461.331 66.9V70.95H460.311V63.22H461.331V64.43C461.901 63.5 462.771 63.04 463.931 63.04C465.801 63.04 466.961 64.28 466.961 66.21L466.951 66.2Z"
            fill="#FFFFFF" />
        <path
            d="M476.19 63.21H477.21V70.63C477.21 71.74 476.82 72.62 476.07 73.26C475.31 73.89 474.4 74.22 473.33 74.22C471.52 74.22 470.3 73.59 469.67 72.33L470.57 71.82C471.03 72.76 471.96 73.23 473.34 73.23C475.12 73.23 476.2 72.22 476.2 70.63V69.42C475.49 70.55 474.45 71.12 473.08 71.12C471.98 71.12 471.04 70.73 470.25 69.94C469.48 69.15 469.09 68.19 469.09 67.06C469.09 65.93 469.48 64.97 470.25 64.18C471.04 63.39 471.98 63 473.08 63C474.46 63 475.49 63.57 476.2 64.7V63.18L476.19 63.21ZM473.15 70.14C474 70.14 474.73 69.85 475.31 69.26C475.9 68.66 476.19 67.93 476.19 67.08C476.19 66.23 475.9 65.5 475.31 64.92C474.72 64.32 474 64.02 473.15 64.02C472.3 64.02 471.57 64.31 470.99 64.92C470.4 65.51 470.11 66.23 470.11 67.08C470.11 67.93 470.4 68.66 470.99 69.26C471.58 69.85 472.3 70.14 473.15 70.14Z"
            fill="#FFFFFF" />
        <path d="M28.5391 22.05H50.1391V26.3H33.1491V35.92H46.7591V40.08H33.1491V53.37H28.5391V22.04V22.05Z"
            fill="#FFFFFF" />
        <path
            d="M256.401 53.9599C247.441 53.9599 240.141 46.6699 240.141 37.6999C240.141 28.7299 247.431 21.4399 256.401 21.4399C265.371 21.4399 272.661 28.7299 272.661 37.6999C272.661 46.6699 265.371 53.9599 256.401 53.9599ZM256.401 25.8899C249.881 25.8899 244.581 31.1899 244.581 37.7099C244.581 44.2299 249.881 49.5299 256.401 49.5299C262.921 49.5299 268.221 44.2299 268.221 37.7099C268.221 31.1899 262.921 25.8899 256.401 25.8899Z"
            fill="#FFFFFF" />
        <path
            d="M110.59 53.9599C101.63 53.9599 94.3301 46.6699 94.3301 37.6999C94.3301 28.7299 101.62 21.4399 110.59 21.4399C119.56 21.4399 126.85 28.7299 126.85 37.6999C126.85 46.6699 119.56 53.9599 110.59 53.9599ZM110.59 25.8899C104.07 25.8899 98.7701 31.1899 98.7701 37.7099C98.7701 44.2299 104.07 49.5299 110.59 49.5299C117.11 49.5299 122.41 44.2299 122.41 37.7099C122.41 31.1899 117.11 25.8899 110.59 25.8899Z"
            fill="#FFFFFF" />
        <path
            d="M37.71 75.42C16.92 75.42 0 58.5 0 37.71C0 16.92 16.92 0 37.71 0C58.5 0 75.42 16.92 75.42 37.71C75.42 58.5 58.5 75.42 37.71 75.42ZM37.71 2.54C18.31 2.54 2.54 18.31 2.54 37.71C2.54 57.11 18.32 72.88 37.71 72.88C57.1 72.88 72.88 57.1 72.88 37.71C72.88 18.32 57.1 2.54 37.71 2.54Z"
            fill="#FFFFFF" />
        <path
            d="M110.591 75.42C89.8009 75.42 72.8809 58.5 72.8809 37.71C72.8809 16.92 89.8009 0 110.591 0C131.381 0 148.301 16.92 148.301 37.71C148.301 58.5 131.381 75.42 110.591 75.42ZM110.591 2.54C91.2009 2.54 75.4209 18.32 75.4209 37.71C75.4209 57.1 91.2009 72.88 110.591 72.88C129.981 72.88 145.761 57.1 145.761 37.71C145.761 18.32 129.991 2.54 110.591 2.54Z"
            fill="#FFFFFF" />
        <path
            d="M183.47 75.42C162.68 75.42 145.76 58.5 145.76 37.71C145.76 16.92 162.68 0 183.47 0C204.26 0 221.18 16.92 221.18 37.71C221.18 58.5 204.26 75.42 183.47 75.42ZM183.47 2.54C164.08 2.54 148.3 18.32 148.3 37.71C148.3 57.1 164.08 72.88 183.47 72.88C202.86 72.88 218.64 57.1 218.64 37.71C218.64 18.32 202.87 2.54 183.47 2.54Z"
            fill="#FFFFFF" />
        <path
            d="M256.399 75.42C235.609 75.42 218.689 58.5 218.689 37.71C218.689 16.92 235.609 0 256.399 0C277.189 0 294.109 16.92 294.109 37.71C294.109 58.5 277.189 75.42 256.399 75.42ZM256.399 2.54C237.009 2.54 221.229 18.32 221.229 37.71C221.229 57.1 237.009 72.88 256.399 72.88C275.789 72.88 291.569 57.1 291.569 37.71C291.569 18.32 275.789 2.54 256.399 2.54Z"
            fill="#FFFFFF" />
        <path
            d="M199.09 53.37H194.49V29.38L185.49 53.37H181.5L181.49 53.3301L172.5 29.38V53.37H167.9V22.05H174.09L174.11 22.09L183.47 47.0601L192.9 22.05H199.09V53.37Z"
            fill="#FFFFFF" />
    </g>
    <defs>
        <clipPath id="clip0_45_906">
            <rect width="559.97" height="75.42" fill="white" />
        </clipPath>
    </defs>
</svg>