<svg width="138" height="35" viewBox="0 0 138 35" fill="none" xmlns="http://www.w3.org/2000/svg">
    <g clip-path="url(#clip0_784_6440)">
        <path
            d="M13.7935 10.2303H23.8542V12.2034H15.9412V16.6691H22.2809V18.6005H15.9412V24.7686H13.7946V10.2303H13.7935Z"
            fill="#2A105C" />
        <path
            d="M119.935 25.0437C115.76 25.0437 112.363 21.6599 112.363 17.5C112.363 13.3401 115.76 9.9563 119.935 9.9563C124.111 9.9563 127.507 13.3401 127.507 17.5C127.507 21.6599 124.111 25.0437 119.935 25.0437ZM119.935 12.0149C116.9 12.0149 114.431 14.4757 114.431 17.4989C114.431 20.5221 116.9 22.9829 119.935 22.9829C122.971 22.9829 125.44 20.5221 125.44 17.4989C125.44 14.4757 122.971 12.0149 119.935 12.0149Z"
            fill="#2A105C" />
        <path
            d="M52.0153 25.0437C47.8399 25.0437 44.4434 21.6599 44.4434 17.5C44.4434 13.3401 47.8399 9.9563 52.0153 9.9563C56.1908 9.9563 59.5873 13.3401 59.5873 17.5C59.5873 21.6599 56.1908 25.0437 52.0153 25.0437ZM52.0153 12.0149C48.9797 12.0149 46.5107 14.4757 46.5107 17.4989C46.5107 20.5221 48.9797 22.9829 52.0153 22.9829C55.051 22.9829 57.5199 20.5221 57.5199 17.4989C57.5199 14.4757 55.051 12.0149 52.0153 12.0149Z"
            fill="#2A105C" />
        <path
            d="M18.0657 35C8.38006 35 0.5 27.1494 0.5 17.5C0.5 7.85061 8.38006 0 18.0657 0C27.7512 0 35.6313 7.85061 35.6313 17.5C35.6313 27.1494 27.7512 35 18.0657 35ZM18.0657 1.17617C9.03142 1.17617 1.68058 8.49953 1.68058 17.5C1.68058 26.5005 9.03032 33.8227 18.0646 33.8227C27.0988 33.8227 34.4496 26.5005 34.4496 17.5C34.4496 8.49953 27.0999 1.17617 18.0657 1.17617Z"
            fill="#2A105C" />
        <path
            d="M52.0154 35C42.3298 35 34.4497 27.1494 34.4497 17.5C34.4497 7.85061 42.3298 0 52.0154 0C61.701 0 69.581 7.85061 69.581 17.5C69.581 27.1494 61.701 35 52.0154 35ZM52.0154 1.17617C42.9811 1.17617 35.6314 8.49843 35.6314 17.4989C35.6314 26.4994 42.9811 33.8216 52.0154 33.8216C61.0496 33.8216 68.3993 26.4994 68.3993 17.4989C68.3993 8.49843 61.0496 1.17617 52.0154 1.17617Z"
            fill="#2A105C" />
        <path
            d="M85.9651 35C76.2795 35 68.3994 27.1494 68.3994 17.5C68.3994 7.85061 76.2795 0 85.9651 0C95.6507 0 103.531 7.85061 103.531 17.5C103.531 27.1494 95.6507 35 85.9651 35ZM85.9651 1.17617C76.9308 1.17617 69.5811 8.49843 69.5811 17.4989C69.5811 26.4994 76.9308 33.8216 85.9651 33.8216C94.9993 33.8216 102.35 26.4994 102.35 17.4989C102.35 8.49843 95.0004 1.17617 85.9651 1.17617Z"
            fill="#2A105C" />
        <path
            d="M119.935 35C110.25 35 102.37 27.1494 102.37 17.5C102.37 7.85061 110.25 0 119.935 0C129.621 0 137.501 7.85061 137.501 17.5C137.501 27.1494 129.621 35 119.935 35ZM119.935 1.17617C110.901 1.17617 103.55 8.49843 103.55 17.4989C103.55 26.4994 110.9 33.8216 119.935 33.8216C128.971 33.8216 136.319 26.4994 136.319 17.4989C136.319 8.49843 128.97 1.17617 119.935 1.17617Z"
            fill="#2A105C" />
        <path
            d="M93.2411 24.7675H91.0989V13.6339L86.9036 24.7675H85.0475L85.0398 24.7488L80.8522 13.6339V24.7675H78.71V10.2303H81.597L81.6036 10.2501L85.9662 21.8375L90.354 10.2303H93.2411V24.7675Z"
            fill="#2A105C" />
    </g>
    <defs>
        <clipPath id="clip0_784_6440">
            <rect width="137" height="35" fill="white" transform="translate(0.5)" />
        </clipPath>
    </defs>
</svg>